# MagicaVoxel @ Ephtracy

# group
g flower4

# material
mtllib flower4.mtl
usemtl palette

# normals
vn -1 0 0
vn 1 0 0
vn 0 0 1
vn 0 0 -1
vn 0 -1 0
vn 0 1 0

# texcoords
vt 0.212891 0.5
vt 0.333984 0.5
vt 0.447266 0.5
vt 0.462891 0.5
vt 0.583984 0.5
vt 0.751953 0.5
vt 0.826172 0.5
vt 0.845703 0.5
vt 0.947266 0.5

# verts
v -3.5 5 -1.5
v -3.5 5 -2.5
v -3.5 6 -1.5
v -3.5 6 -2.5
v -2.5 0 0.5
v -2.5 0 -0.5
v -2.5 1 0.5
v -2.5 1 -0.5
v -2.5 2 0.5
v -2.5 2 -1.5
v -2.5 3 0.5
v -2.5 3 -0.5
v -2.5 3 -1.5
v -2.5 3 -2.5
v -2.5 4 2.5
v -2.5 4 1.5
v -2.5 4 -0.5
v -2.5 4 -1.5
v -2.5 5 2.5
v -2.5 5 1.5
v -2.5 5 -0.5
v -2.5 5 -1.5
v -2.5 5 -2.5
v -2.5 5 -3.5
v -2.5 6 -0.5
v -2.5 6 -1.5
v -2.5 6 -2.5
v -2.5 6 -3.5
v -2.5 7 -1.5
v -2.5 7 -2.5
v -1.5 0 1.5
v -1.5 0 0.5
v -1.5 0 -0.5
v -1.5 0 -1.5
v -1.5 1 0.5
v -1.5 1 -0.5
v -1.5 1 -1.5
v -1.5 2 2.5
v -1.5 2 1.5
v -1.5 2 0.5
v -1.5 2 -0.5
v -1.5 3 1.5
v -1.5 3 0.5
v -1.5 4 3.5
v -1.5 4 2.5
v -1.5 4 1.5
v -1.5 4 0.5
v -1.5 5 3.5
v -1.5 5 2.5
v -1.5 5 1.5
v -1.5 5 0.5
v -1.5 6 2.5
v -1.5 6 1.5
v 0.5 3 0.5
v 0.5 3 -0.5
v 0.5 5 0.5
v 0.5 5 -0.5
v 0.5 6 0.5
v 0.5 6 -0.5
v 1.5 5 1.5
v 1.5 5 0.5
v 1.5 5 -0.5
v 1.5 5 -1.5
v 1.5 6 1.5
v 1.5 6 0.5
v 1.5 6 -0.5
v 1.5 6 -1.5
v 1.5 7 0.5
v 1.5 7 -0.5
v -1.5 2 -0.5
v -1.5 2 -1.5
v -1.5 3 -0.5
v -1.5 3 -1.5
v -1.5 3 -2.5
v -1.5 4 -0.5
v -1.5 4 -1.5
v -1.5 5 -0.5
v -1.5 5 -1.5
v -1.5 5 -2.5
v -1.5 5 -3.5
v -1.5 6 -0.5
v -1.5 6 -1.5
v -1.5 6 -2.5
v -1.5 6 -3.5
v -1.5 7 -1.5
v -1.5 7 -2.5
v -0.5 0 1.5
v -0.5 0 0.5
v -0.5 0 -0.5
v -0.5 0 -1.5
v -0.5 1 -0.5
v -0.5 1 -1.5
v -0.5 2 2.5
v -0.5 2 1.5
v -0.5 3 1.5
v -0.5 3 0.5
v -0.5 4 3.5
v -0.5 4 2.5
v -0.5 4 1.5
v -0.5 4 0.5
v -0.5 5 3.5
v -0.5 5 2.5
v -0.5 5 1.5
v -0.5 5 0.5
v -0.5 5 -1.5
v -0.5 5 -2.5
v -0.5 6 2.5
v -0.5 6 1.5
v -0.5 6 -1.5
v -0.5 6 -2.5
v 0.5 0 0.5
v 0.5 0 -0.5
v 0.5 2 0.5
v 0.5 2 -0.5
v 0.5 4 2.5
v 0.5 4 1.5
v 0.5 5 2.5
v 0.5 5 1.5
v 1.5 2 0.5
v 1.5 2 -0.5
v 1.5 4 0.5
v 1.5 4 -0.5
v 2.5 4 0.5
v 2.5 4 -0.5
v 2.5 5 1.5
v 2.5 5 0.5
v 2.5 5 -0.5
v 2.5 5 -1.5
v 2.5 6 1.5
v 2.5 6 0.5
v 2.5 6 -0.5
v 2.5 6 -1.5
v 2.5 7 0.5
v 2.5 7 -0.5
v 3.5 5 0.5
v 3.5 5 -0.5
v 3.5 6 0.5
v 3.5 6 -0.5
v -1.5 4 3.5
v -1.5 5 3.5
v -0.5 4 3.5
v -0.5 5 3.5
v -2.5 4 2.5
v -2.5 5 2.5
v -1.5 2 2.5
v -1.5 4 2.5
v -1.5 5 2.5
v -1.5 6 2.5
v -0.5 2 2.5
v -0.5 4 2.5
v -0.5 5 2.5
v -0.5 6 2.5
v 0.5 4 2.5
v 0.5 5 2.5
v -1.5 0 1.5
v -1.5 2 1.5
v -0.5 0 1.5
v -0.5 2 1.5
v 1.5 5 1.5
v 1.5 6 1.5
v 2.5 5 1.5
v 2.5 6 1.5
v -2.5 0 0.5
v -2.5 1 0.5
v -2.5 2 0.5
v -2.5 3 0.5
v -1.5 0 0.5
v -1.5 1 0.5
v -1.5 2 0.5
v -1.5 3 0.5
v -0.5 0 0.5
v -0.5 3 0.5
v 0.5 0 0.5
v 0.5 2 0.5
v 0.5 3 0.5
v 0.5 5 0.5
v 0.5 6 0.5
v 1.5 2 0.5
v 1.5 4 0.5
v 1.5 5 0.5
v 1.5 6 0.5
v 1.5 7 0.5
v 2.5 4 0.5
v 2.5 5 0.5
v 2.5 6 0.5
v 2.5 7 0.5
v 3.5 5 0.5
v 3.5 6 0.5
v -2.5 3 -0.5
v -2.5 4 -0.5
v -2.5 5 -0.5
v -2.5 6 -0.5
v -1.5 3 -0.5
v -1.5 4 -0.5
v -1.5 5 -0.5
v -1.5 6 -0.5
v -3.5 5 -1.5
v -3.5 6 -1.5
v -2.5 4 -1.5
v -2.5 5 -1.5
v -2.5 6 -1.5
v -2.5 7 -1.5
v -1.5 4 -1.5
v -1.5 5 -1.5
v -1.5 6 -1.5
v -1.5 7 -1.5
v -0.5 5 -1.5
v -0.5 6 -1.5
v -2.5 4 1.5
v -2.5 5 1.5
v -1.5 3 1.5
v -1.5 4 1.5
v -1.5 5 1.5
v -1.5 6 1.5
v -0.5 3 1.5
v -0.5 4 1.5
v -0.5 5 1.5
v -0.5 6 1.5
v 0.5 4 1.5
v 0.5 5 1.5
v -1.5 4 0.5
v -1.5 5 0.5
v -0.5 4 0.5
v -0.5 5 0.5
v -2.5 0 -0.5
v -2.5 1 -0.5
v -1.5 0 -0.5
v -1.5 1 -0.5
v -1.5 2 -0.5
v -1.5 3 -0.5
v -0.5 0 -0.5
v -0.5 1 -0.5
v 0.5 0 -0.5
v 0.5 2 -0.5
v 0.5 3 -0.5
v 0.5 5 -0.5
v 0.5 6 -0.5
v 1.5 2 -0.5
v 1.5 4 -0.5
v 1.5 5 -0.5
v 1.5 6 -0.5
v 1.5 7 -0.5
v 2.5 4 -0.5
v 2.5 5 -0.5
v 2.5 6 -0.5
v 2.5 7 -0.5
v 3.5 5 -0.5
v 3.5 6 -0.5
v -2.5 2 -1.5
v -2.5 3 -1.5
v -1.5 0 -1.5
v -1.5 1 -1.5
v -1.5 2 -1.5
v -1.5 3 -1.5
v -0.5 0 -1.5
v -0.5 1 -1.5
v 1.5 5 -1.5
v 1.5 6 -1.5
v 2.5 5 -1.5
v 2.5 6 -1.5
v -3.5 5 -2.5
v -3.5 6 -2.5
v -2.5 3 -2.5
v -2.5 5 -2.5
v -2.5 6 -2.5
v -2.5 7 -2.5
v -1.5 3 -2.5
v -1.5 5 -2.5
v -1.5 6 -2.5
v -1.5 7 -2.5
v -0.5 5 -2.5
v -0.5 6 -2.5
v -2.5 5 -3.5
v -2.5 6 -3.5
v -1.5 5 -3.5
v -1.5 6 -3.5
v -1.5 0 1.5
v -0.5 0 1.5
v -2.5 0 0.5
v -1.5 0 0.5
v -0.5 0 0.5
v 0.5 0 0.5
v -2.5 0 -0.5
v -1.5 0 -0.5
v -0.5 0 -0.5
v 0.5 0 -0.5
v -1.5 0 -1.5
v -0.5 0 -1.5
v -1.5 2 2.5
v -0.5 2 2.5
v -1.5 2 1.5
v -0.5 2 1.5
v -2.5 2 0.5
v -1.5 2 0.5
v 0.5 2 0.5
v 1.5 2 0.5
v -1.5 2 -0.5
v 0.5 2 -0.5
v 1.5 2 -0.5
v -2.5 2 -1.5
v -1.5 2 -1.5
v -2.5 3 -1.5
v -1.5 3 -1.5
v -2.5 3 -2.5
v -1.5 3 -2.5
v -1.5 4 3.5
v -0.5 4 3.5
v -2.5 4 2.5
v -1.5 4 2.5
v -0.5 4 2.5
v 0.5 4 2.5
v -2.5 4 1.5
v -1.5 4 1.5
v -0.5 4 1.5
v 0.5 4 1.5
v -1.5 4 0.5
v -0.5 4 0.5
v 1.5 4 0.5
v 2.5 4 0.5
v 1.5 4 -0.5
v 2.5 4 -0.5
v 1.5 5 1.5
v 2.5 5 1.5
v 1.5 5 0.5
v 2.5 5 0.5
v 3.5 5 0.5
v -2.5 5 -0.5
v -1.5 5 -0.5
v 1.5 5 -0.5
v 2.5 5 -0.5
v 3.5 5 -0.5
v -3.5 5 -1.5
v -2.5 5 -1.5
v -1.5 5 -1.5
v -0.5 5 -1.5
v 1.5 5 -1.5
v 2.5 5 -1.5
v -3.5 5 -2.5
v -2.5 5 -2.5
v -1.5 5 -2.5
v -0.5 5 -2.5
v -2.5 5 -3.5
v -1.5 5 -3.5
v -2.5 1 0.5
v -1.5 1 0.5
v -2.5 1 -0.5
v -1.5 1 -0.5
v -0.5 1 -0.5
v -1.5 1 -1.5
v -0.5 1 -1.5
v -1.5 3 1.5
v -0.5 3 1.5
v -2.5 3 0.5
v -1.5 3 0.5
v -0.5 3 0.5
v 0.5 3 0.5
v -2.5 3 -0.5
v -1.5 3 -0.5
v 0.5 3 -0.5
v -2.5 4 -0.5
v -1.5 4 -0.5
v -2.5 4 -1.5
v -1.5 4 -1.5
v -1.5 5 3.5
v -0.5 5 3.5
v -2.5 5 2.5
v -1.5 5 2.5
v -0.5 5 2.5
v 0.5 5 2.5
v -2.5 5 1.5
v -1.5 5 1.5
v -0.5 5 1.5
v 0.5 5 1.5
v -1.5 5 0.5
v -0.5 5 0.5
v -1.5 6 2.5
v -0.5 6 2.5
v -1.5 6 1.5
v -0.5 6 1.5
v 1.5 6 1.5
v 2.5 6 1.5
v 0.5 6 0.5
v 1.5 6 0.5
v 2.5 6 0.5
v 3.5 6 0.5
v -2.5 6 -0.5
v -1.5 6 -0.5
v 0.5 6 -0.5
v 1.5 6 -0.5
v 2.5 6 -0.5
v 3.5 6 -0.5
v -3.5 6 -1.5
v -2.5 6 -1.5
v -1.5 6 -1.5
v -0.5 6 -1.5
v 1.5 6 -1.5
v 2.5 6 -1.5
v -3.5 6 -2.5
v -2.5 6 -2.5
v -1.5 6 -2.5
v -0.5 6 -2.5
v -2.5 6 -3.5
v -1.5 6 -3.5
v 1.5 7 0.5
v 2.5 7 0.5
v 1.5 7 -0.5
v 2.5 7 -0.5
v -2.5 7 -1.5
v -1.5 7 -1.5
v -2.5 7 -2.5
v -1.5 7 -2.5

# faces
f 3/5/1 2/5/1 1/5/1
f 4/5/1 2/5/1 3/5/1
f 7/7/1 6/7/1 5/7/1
f 8/7/1 6/7/1 7/7/1
f 11/7/1 10/7/1 9/7/1
f 12/7/1 10/7/1 11/7/1
f 13/7/1 10/7/1 12/7/1
f 17/7/1 14/7/1 13/7/1
f 17/7/1 13/7/1 12/7/1
f 18/7/1 14/7/1 17/7/1
f 19/9/1 16/9/1 15/9/1
f 20/9/1 16/9/1 19/9/1
f 22/7/1 14/7/1 18/7/1
f 23/7/1 14/7/1 22/7/1
f 25/5/1 22/5/1 21/5/1
f 26/5/1 22/5/1 25/5/1
f 27/5/1 24/5/1 23/5/1
f 28/5/1 24/5/1 27/5/1
f 29/4/1 27/4/1 26/4/1
f 30/4/1 27/4/1 29/4/1
f 35/7/1 32/7/1 31/7/1
f 36/7/1 34/7/1 33/7/1
f 37/7/1 34/7/1 36/7/1
f 39/7/1 35/7/1 31/7/1
f 39/7/1 36/7/1 35/7/1
f 40/7/1 36/7/1 39/7/1
f 41/7/1 36/7/1 40/7/1
f 42/7/1 39/7/1 38/7/1
f 42/7/1 40/7/1 39/7/1
f 43/7/1 40/7/1 42/7/1
f 45/7/1 42/7/1 38/7/1
f 46/7/1 42/7/1 45/7/1
f 48/9/1 45/9/1 44/9/1
f 49/9/1 45/9/1 48/9/1
f 50/9/1 47/9/1 46/9/1
f 51/9/1 47/9/1 50/9/1
f 52/6/1 50/6/1 49/6/1
f 53/6/1 50/6/1 52/6/1
f 56/7/1 55/7/1 54/7/1
f 57/7/1 55/7/1 56/7/1
f 58/3/1 57/3/1 56/3/1
f 59/3/1 57/3/1 58/3/1
f 64/3/1 61/3/1 60/3/1
f 65/3/1 61/3/1 64/3/1
f 66/3/1 63/3/1 62/3/1
f 67/3/1 63/3/1 66/3/1
f 68/8/1 66/8/1 65/8/1
f 69/8/1 66/8/1 68/8/1
f 70/7/2 71/7/2 72/7/2
f 72/7/2 71/7/2 73/7/2
f 72/7/2 73/7/2 75/7/2
f 73/7/2 74/7/2 75/7/2
f 75/7/2 74/7/2 76/7/2
f 76/7/2 74/7/2 78/7/2
f 78/7/2 74/7/2 79/7/2
f 77/5/2 78/5/2 81/5/2
f 81/5/2 78/5/2 82/5/2
f 79/5/2 80/5/2 83/5/2
f 83/5/2 80/5/2 84/5/2
f 82/4/2 83/4/2 85/4/2
f 85/4/2 83/4/2 86/4/2
f 89/7/2 90/7/2 91/7/2
f 91/7/2 90/7/2 92/7/2
f 87/7/2 88/7/2 94/7/2
f 94/7/2 88/7/2 95/7/2
f 93/7/2 94/7/2 95/7/2
f 95/7/2 88/7/2 96/7/2
f 93/7/2 95/7/2 98/7/2
f 98/7/2 95/7/2 99/7/2
f 97/9/2 98/9/2 101/9/2
f 101/9/2 98/9/2 102/9/2
f 99/9/2 100/9/2 103/9/2
f 103/9/2 100/9/2 104/9/2
f 102/6/2 103/6/2 107/6/2
f 107/6/2 103/6/2 108/6/2
f 105/5/2 106/5/2 109/5/2
f 109/5/2 106/5/2 110/5/2
f 111/7/2 112/7/2 113/7/2
f 113/7/2 112/7/2 114/7/2
f 115/9/2 116/9/2 117/9/2
f 117/9/2 116/9/2 118/9/2
f 119/7/2 120/7/2 121/7/2
f 121/7/2 120/7/2 122/7/2
f 123/7/2 124/7/2 126/7/2
f 126/7/2 124/7/2 127/7/2
f 125/3/2 126/3/2 129/3/2
f 129/3/2 126/3/2 130/3/2
f 127/3/2 128/3/2 131/3/2
f 131/3/2 128/3/2 132/3/2
f 130/8/2 131/8/2 133/8/2
f 133/8/2 131/8/2 134/8/2
f 135/3/2 136/3/2 137/3/2
f 137/3/2 136/3/2 138/3/2
f 141/9/3 140/9/3 139/9/3
f 142/9/3 140/9/3 141/9/3
f 146/9/3 144/9/3 143/9/3
f 147/9/3 144/9/3 146/9/3
f 149/7/3 146/7/3 145/7/3
f 150/7/3 146/7/3 149/7/3
f 151/6/3 148/6/3 147/6/3
f 152/6/3 148/6/3 151/6/3
f 153/9/3 151/9/3 150/9/3
f 154/9/3 151/9/3 153/9/3
f 157/7/3 156/7/3 155/7/3
f 158/7/3 156/7/3 157/7/3
f 161/3/3 160/3/3 159/3/3
f 162/3/3 160/3/3 161/3/3
f 167/7/3 164/7/3 163/7/3
f 168/7/3 164/7/3 167/7/3
f 169/7/3 166/7/3 165/7/3
f 170/7/3 166/7/3 169/7/3
f 173/7/3 172/7/3 171/7/3
f 174/7/3 172/7/3 173/7/3
f 175/7/3 172/7/3 174/7/3
f 178/7/3 175/7/3 174/7/3
f 178/7/3 176/7/3 175/7/3
f 179/7/3 176/7/3 178/7/3
f 180/3/3 177/3/3 176/3/3
f 180/7/3 176/7/3 179/7/3
f 181/3/3 177/3/3 180/3/3
f 183/7/3 180/7/3 179/7/3
f 184/7/3 180/7/3 183/7/3
f 185/8/3 182/8/3 181/8/3
f 186/8/3 182/8/3 185/8/3
f 187/3/3 185/3/3 184/3/3
f 188/3/3 185/3/3 187/3/3
f 193/7/3 190/7/3 189/7/3
f 194/7/3 190/7/3 193/7/3
f 195/5/3 192/5/3 191/5/3
f 196/5/3 192/5/3 195/5/3
f 200/5/3 198/5/3 197/5/3
f 201/5/3 198/5/3 200/5/3
f 203/7/3 200/7/3 199/7/3
f 204/7/3 200/7/3 203/7/3
f 205/4/3 202/4/3 201/4/3
f 206/4/3 202/4/3 205/4/3
f 207/5/3 205/5/3 204/5/3
f 208/5/3 205/5/3 207/5/3
f 209/9/4 210/9/4 212/9/4
f 212/9/4 210/9/4 213/9/4
f 211/7/4 212/7/4 215/7/4
f 215/7/4 212/7/4 216/7/4
f 213/6/4 214/6/4 217/6/4
f 217/6/4 214/6/4 218/6/4
f 216/9/4 217/9/4 219/9/4
f 219/9/4 217/9/4 220/9/4
f 221/9/4 222/9/4 223/9/4
f 223/9/4 222/9/4 224/9/4
f 225/7/4 226/7/4 227/7/4
f 227/7/4 226/7/4 228/7/4
f 229/7/4 230/7/4 232/7/4
f 228/7/4 229/7/4 232/7/4
f 231/7/4 232/7/4 233/7/4
f 232/7/4 230/7/4 234/7/4
f 233/7/4 232/7/4 234/7/4
f 234/7/4 230/7/4 235/7/4
f 234/7/4 235/7/4 238/7/4
f 235/7/4 236/7/4 238/7/4
f 238/7/4 236/7/4 239/7/4
f 236/3/4 237/3/4 240/3/4
f 239/7/4 236/7/4 240/7/4
f 240/3/4 237/3/4 241/3/4
f 239/7/4 240/7/4 243/7/4
f 243/7/4 240/7/4 244/7/4
f 241/8/4 242/8/4 245/8/4
f 245/8/4 242/8/4 246/8/4
f 244/3/4 245/3/4 247/3/4
f 247/3/4 245/3/4 248/3/4
f 249/7/4 250/7/4 253/7/4
f 253/7/4 250/7/4 254/7/4
f 251/7/4 252/7/4 255/7/4
f 255/7/4 252/7/4 256/7/4
f 257/3/4 258/3/4 259/3/4
f 259/3/4 258/3/4 260/3/4
f 261/5/4 262/5/4 264/5/4
f 264/5/4 262/5/4 265/5/4
f 263/7/4 264/7/4 267/7/4
f 267/7/4 264/7/4 268/7/4
f 265/4/4 266/4/4 269/4/4
f 269/4/4 266/4/4 270/4/4
f 268/5/4 269/5/4 271/5/4
f 271/5/4 269/5/4 272/5/4
f 273/5/4 274/5/4 275/5/4
f 275/5/4 274/5/4 276/5/4
f 280/7/5 278/7/5 277/7/5
f 281/7/5 278/7/5 280/7/5
f 283/7/5 280/7/5 279/7/5
f 283/7/5 282/7/5 281/7/5
f 283/7/5 281/7/5 280/7/5
f 284/7/5 282/7/5 283/7/5
f 285/7/5 282/7/5 284/7/5
f 286/7/5 282/7/5 285/7/5
f 287/7/5 285/7/5 284/7/5
f 288/7/5 285/7/5 287/7/5
f 291/7/5 290/7/5 289/7/5
f 292/7/5 290/7/5 291/7/5
f 297/7/5 294/7/5 293/7/5
f 298/7/5 296/7/5 295/7/5
f 299/7/5 296/7/5 298/7/5
f 300/7/5 297/7/5 293/7/5
f 301/7/5 297/7/5 300/7/5
f 304/7/5 303/7/5 302/7/5
f 305/7/5 303/7/5 304/7/5
f 309/9/5 307/9/5 306/9/5
f 310/9/5 307/9/5 309/9/5
f 312/9/5 309/9/5 308/9/5
f 313/9/5 309/9/5 312/9/5
f 314/9/5 311/9/5 310/9/5
f 315/9/5 311/9/5 314/9/5
f 316/9/5 314/9/5 313/9/5
f 317/9/5 314/9/5 316/9/5
f 320/7/5 319/7/5 318/7/5
f 321/7/5 319/7/5 320/7/5
f 324/3/5 323/3/5 322/3/5
f 325/3/5 323/3/5 324/3/5
f 330/3/5 326/3/5 325/3/5
f 331/3/5 326/3/5 330/3/5
f 333/5/5 328/5/5 327/5/5
f 334/5/5 328/5/5 333/5/5
f 336/3/5 330/3/5 329/3/5
f 337/3/5 330/3/5 336/3/5
f 338/5/5 333/5/5 332/5/5
f 339/5/5 333/5/5 338/5/5
f 340/5/5 335/5/5 334/5/5
f 341/5/5 335/5/5 340/5/5
f 342/5/5 340/5/5 339/5/5
f 343/5/5 340/5/5 342/5/5
f 344/7/6 345/7/6 346/7/6
f 346/7/6 345/7/6 347/7/6
f 347/7/6 348/7/6 349/7/6
f 349/7/6 348/7/6 350/7/6
f 351/7/6 352/7/6 354/7/6
f 354/7/6 352/7/6 355/7/6
f 353/7/6 354/7/6 357/7/6
f 355/7/6 356/7/6 357/7/6
f 354/7/6 355/7/6 357/7/6
f 357/7/6 356/7/6 358/7/6
f 358/7/6 356/7/6 359/7/6
f 360/7/6 361/7/6 362/7/6
f 362/7/6 361/7/6 363/7/6
f 364/9/6 365/9/6 367/9/6
f 367/9/6 365/9/6 368/9/6
f 366/9/6 367/9/6 370/9/6
f 370/9/6 367/9/6 371/9/6
f 368/9/6 369/9/6 372/9/6
f 372/9/6 369/9/6 373/9/6
f 371/9/6 372/9/6 374/9/6
f 374/9/6 372/9/6 375/9/6
f 376/6/6 377/6/6 378/6/6
f 378/6/6 377/6/6 379/6/6
f 380/3/6 381/3/6 383/3/6
f 383/3/6 381/3/6 384/3/6
f 382/3/6 383/3/6 388/3/6
f 388/3/6 383/3/6 389/3/6
f 384/3/6 385/3/6 390/3/6
f 390/3/6 385/3/6 391/3/6
f 386/5/6 387/5/6 393/5/6
f 393/5/6 387/5/6 394/5/6
f 389/3/6 390/3/6 396/3/6
f 396/3/6 390/3/6 397/3/6
f 392/5/6 393/5/6 398/5/6
f 398/5/6 393/5/6 399/5/6
f 394/5/6 395/5/6 400/5/6
f 400/5/6 395/5/6 401/5/6
f 399/5/6 400/5/6 402/5/6
f 402/5/6 400/5/6 403/5/6
f 404/8/6 405/8/6 406/8/6
f 406/8/6 405/8/6 407/8/6
f 408/4/6 409/4/6 410/4/6
f 410/4/6 409/4/6 411/4/6
