# MagicaVoxel @ Ephtracy

# group
g flower2

# material
mtllib flower2.mtl
usemtl palette

# normals
vn -1 0 0
vn 1 0 0
vn 0 0 1
vn 0 0 -1
vn 0 -1 0
vn 0 1 0

# texcoords
vt 0.876953 0.5
vt 0.908203 0.5
vt 0.912109 0.5
vt 0.916016 0.5
vt 0.919922 0.5
vt 0.947266 0.5

# verts
v -6.5 0 0.5
v -6.5 0 -0.5
v -6.5 1 0.5
v -6.5 1 -0.5
v -4.5 0 1.5
v -4.5 0 0.5
v -4.5 0 -0.5
v -4.5 0 -1.5
v -4.5 1 1.5
v -4.5 1 0.5
v -4.5 1 -0.5
v -4.5 1 -1.5
v -1.5 0 4.5
v -1.5 0 1.5
v -1.5 0 -1.5
v -1.5 0 -4.5
v -1.5 1 4.5
v -1.5 1 1.5
v -1.5 1 -1.5
v -1.5 1 -4.5
v -0.5 0 6.5
v -0.5 0 4.5
v -0.5 0 1.5
v -0.5 0 0.5
v -0.5 0 -0.5
v -0.5 0 -1.5
v -0.5 0 -4.5
v -0.5 0 -6.5
v -0.5 1 6.5
v -0.5 1 4.5
v -0.5 1 1.5
v -0.5 1 0.5
v -0.5 1 -0.5
v -0.5 1 -1.5
v -0.5 1 -4.5
v -0.5 1 -6.5
v 1.5 0 1.5
v 1.5 0 0.5
v 1.5 0 -0.5
v 1.5 0 -1.5
v 1.5 1 1.5
v 1.5 1 0.5
v 1.5 1 -0.5
v 1.5 1 -1.5
v -1.5 0 1.5
v -1.5 0 0.5
v -1.5 0 -0.5
v -1.5 0 -1.5
v -1.5 1 1.5
v -1.5 1 0.5
v -1.5 1 -0.5
v -1.5 1 -1.5
v 0.5 0 6.5
v 0.5 0 4.5
v 0.5 0 1.5
v 0.5 0 0.5
v 0.5 0 -0.5
v 0.5 0 -1.5
v 0.5 0 -4.5
v 0.5 0 -6.5
v 0.5 1 6.5
v 0.5 1 4.5
v 0.5 1 1.5
v 0.5 1 0.5
v 0.5 1 -0.5
v 0.5 1 -1.5
v 0.5 1 -4.5
v 0.5 1 -6.5
v 1.5 0 4.5
v 1.5 0 1.5
v 1.5 0 -1.5
v 1.5 0 -4.5
v 1.5 1 4.5
v 1.5 1 1.5
v 1.5 1 -1.5
v 1.5 1 -4.5
v 4.5 0 1.5
v 4.5 0 0.5
v 4.5 0 -0.5
v 4.5 0 -1.5
v 4.5 1 1.5
v 4.5 1 0.5
v 4.5 1 -0.5
v 4.5 1 -1.5
v 6.5 0 0.5
v 6.5 0 -0.5
v 6.5 1 0.5
v 6.5 1 -0.5
v -0.5 0 6.5
v -0.5 1 6.5
v 0.5 0 6.5
v 0.5 1 6.5
v -1.5 0 4.5
v -1.5 1 4.5
v -0.5 0 4.5
v -0.5 1 4.5
v 0.5 0 4.5
v 0.5 1 4.5
v 1.5 0 4.5
v 1.5 1 4.5
v -4.5 0 1.5
v -4.5 1 1.5
v -1.5 0 1.5
v -1.5 1 1.5
v 1.5 0 1.5
v 1.5 1 1.5
v 4.5 0 1.5
v 4.5 1 1.5
v -6.5 0 0.5
v -6.5 1 0.5
v -4.5 0 0.5
v -4.5 1 0.5
v -1.5 0 0.5
v -1.5 1 0.5
v -0.5 0 0.5
v -0.5 1 0.5
v 0.5 0 0.5
v 0.5 1 0.5
v 1.5 0 0.5
v 1.5 1 0.5
v 4.5 0 0.5
v 4.5 1 0.5
v 6.5 0 0.5
v 6.5 1 0.5
v -1.5 0 -1.5
v -1.5 1 -1.5
v -0.5 0 -1.5
v -0.5 1 -1.5
v 0.5 0 -1.5
v 0.5 1 -1.5
v 1.5 0 -1.5
v 1.5 1 -1.5
v -1.5 0 1.5
v -1.5 1 1.5
v -0.5 0 1.5
v -0.5 1 1.5
v 0.5 0 1.5
v 0.5 1 1.5
v 1.5 0 1.5
v 1.5 1 1.5
v -6.5 0 -0.5
v -6.5 1 -0.5
v -4.5 0 -0.5
v -4.5 1 -0.5
v -1.5 0 -0.5
v -1.5 1 -0.5
v -0.5 0 -0.5
v -0.5 1 -0.5
v 0.5 0 -0.5
v 0.5 1 -0.5
v 1.5 0 -0.5
v 1.5 1 -0.5
v 4.5 0 -0.5
v 4.5 1 -0.5
v 6.5 0 -0.5
v 6.5 1 -0.5
v -4.5 0 -1.5
v -4.5 1 -1.5
v -1.5 0 -1.5
v -1.5 1 -1.5
v 1.5 0 -1.5
v 1.5 1 -1.5
v 4.5 0 -1.5
v 4.5 1 -1.5
v -1.5 0 -4.5
v -1.5 1 -4.5
v -0.5 0 -4.5
v -0.5 1 -4.5
v 0.5 0 -4.5
v 0.5 1 -4.5
v 1.5 0 -4.5
v 1.5 1 -4.5
v -0.5 0 -6.5
v -0.5 1 -6.5
v 0.5 0 -6.5
v 0.5 1 -6.5
v -0.5 0 6.5
v 0.5 0 6.5
v -1.5 0 4.5
v -0.5 0 4.5
v 0.5 0 4.5
v 1.5 0 4.5
v -0.5 0 3.5
v 0.5 0 3.5
v -0.5 0 2.5
v 0.5 0 2.5
v -4.5 0 1.5
v -1.5 0 1.5
v -0.5 0 1.5
v 0.5 0 1.5
v 1.5 0 1.5
v 4.5 0 1.5
v -6.5 0 0.5
v -4.5 0 0.5
v -3.5 0 0.5
v -2.5 0 0.5
v -1.5 0 0.5
v -0.5 0 0.5
v 0.5 0 0.5
v 1.5 0 0.5
v 2.5 0 0.5
v 3.5 0 0.5
v 4.5 0 0.5
v 6.5 0 0.5
v -6.5 0 -0.5
v -4.5 0 -0.5
v -3.5 0 -0.5
v -2.5 0 -0.5
v -1.5 0 -0.5
v -0.5 0 -0.5
v 0.5 0 -0.5
v 1.5 0 -0.5
v 2.5 0 -0.5
v 3.5 0 -0.5
v 4.5 0 -0.5
v 6.5 0 -0.5
v -4.5 0 -1.5
v -1.5 0 -1.5
v -0.5 0 -1.5
v 0.5 0 -1.5
v 1.5 0 -1.5
v 4.5 0 -1.5
v -0.5 0 -2.5
v 0.5 0 -2.5
v -0.5 0 -3.5
v 0.5 0 -3.5
v -1.5 0 -4.5
v -0.5 0 -4.5
v 0.5 0 -4.5
v 1.5 0 -4.5
v -0.5 0 -6.5
v 0.5 0 -6.5
v -0.5 1 6.5
v 0.5 1 6.5
v -1.5 1 4.5
v -0.5 1 4.5
v 0.5 1 4.5
v 1.5 1 4.5
v -0.5 1 3.5
v 0.5 1 3.5
v -0.5 1 2.5
v 0.5 1 2.5
v -4.5 1 1.5
v -1.5 1 1.5
v -0.5 1 1.5
v 0.5 1 1.5
v 1.5 1 1.5
v 4.5 1 1.5
v -6.5 1 0.5
v -4.5 1 0.5
v -3.5 1 0.5
v -2.5 1 0.5
v -1.5 1 0.5
v -0.5 1 0.5
v 0.5 1 0.5
v 1.5 1 0.5
v 2.5 1 0.5
v 3.5 1 0.5
v 4.5 1 0.5
v 6.5 1 0.5
v -6.5 1 -0.5
v -4.5 1 -0.5
v -3.5 1 -0.5
v -2.5 1 -0.5
v -1.5 1 -0.5
v -0.5 1 -0.5
v 0.5 1 -0.5
v 1.5 1 -0.5
v 2.5 1 -0.5
v 3.5 1 -0.5
v 4.5 1 -0.5
v 6.5 1 -0.5
v -4.5 1 -1.5
v -1.5 1 -1.5
v -0.5 1 -1.5
v 0.5 1 -1.5
v 1.5 1 -1.5
v 4.5 1 -1.5
v -0.5 1 -2.5
v 0.5 1 -2.5
v -0.5 1 -3.5
v 0.5 1 -3.5
v -1.5 1 -4.5
v -0.5 1 -4.5
v 0.5 1 -4.5
v 1.5 1 -4.5
v -0.5 1 -6.5
v 0.5 1 -6.5

# faces
f 3/6/1 2/6/1 1/6/1
f 4/6/1 2/6/1 3/6/1
f 9/6/1 6/6/1 5/6/1
f 10/6/1 6/6/1 9/6/1
f 11/6/1 8/6/1 7/6/1
f 12/6/1 8/6/1 11/6/1
f 17/6/1 14/6/1 13/6/1
f 18/6/1 14/6/1 17/6/1
f 19/6/1 16/6/1 15/6/1
f 20/6/1 16/6/1 19/6/1
f 29/6/1 22/6/1 21/6/1
f 30/6/1 22/6/1 29/6/1
f 31/4/1 24/4/1 23/4/1
f 32/4/1 24/4/1 31/4/1
f 33/4/1 26/4/1 25/4/1
f 34/4/1 26/4/1 33/4/1
f 35/6/1 28/6/1 27/6/1
f 36/6/1 28/6/1 35/6/1
f 41/6/1 38/6/1 37/6/1
f 42/6/1 38/6/1 41/6/1
f 43/6/1 40/6/1 39/6/1
f 44/6/1 40/6/1 43/6/1
f 45/6/2 46/6/2 49/6/2
f 49/6/2 46/6/2 50/6/2
f 47/6/2 48/6/2 51/6/2
f 51/6/2 48/6/2 52/6/2
f 53/6/2 54/6/2 61/6/2
f 61/6/2 54/6/2 62/6/2
f 55/4/2 56/4/2 63/4/2
f 63/4/2 56/4/2 64/4/2
f 57/4/2 58/4/2 65/4/2
f 65/4/2 58/4/2 66/4/2
f 59/6/2 60/6/2 67/6/2
f 67/6/2 60/6/2 68/6/2
f 69/6/2 70/6/2 73/6/2
f 73/6/2 70/6/2 74/6/2
f 71/6/2 72/6/2 75/6/2
f 75/6/2 72/6/2 76/6/2
f 77/6/2 78/6/2 81/6/2
f 81/6/2 78/6/2 82/6/2
f 79/6/2 80/6/2 83/6/2
f 83/6/2 80/6/2 84/6/2
f 85/6/2 86/6/2 87/6/2
f 87/6/2 86/6/2 88/6/2
f 91/6/3 90/6/3 89/6/3
f 92/6/3 90/6/3 91/6/3
f 95/6/3 94/6/3 93/6/3
f 96/6/3 94/6/3 95/6/3
f 99/6/3 98/6/3 97/6/3
f 100/6/3 98/6/3 99/6/3
f 103/6/3 102/6/3 101/6/3
f 104/6/3 102/6/3 103/6/3
f 107/6/3 106/6/3 105/6/3
f 108/6/3 106/6/3 107/6/3
f 111/6/3 110/6/3 109/6/3
f 112/6/3 110/6/3 111/6/3
f 115/4/3 114/4/3 113/4/3
f 116/4/3 114/4/3 115/4/3
f 119/4/3 118/4/3 117/4/3
f 120/4/3 118/4/3 119/4/3
f 123/6/3 122/6/3 121/6/3
f 124/6/3 122/6/3 123/6/3
f 127/6/3 126/6/3 125/6/3
f 128/6/3 126/6/3 127/6/3
f 131/6/3 130/6/3 129/6/3
f 132/6/3 130/6/3 131/6/3
f 133/6/4 134/6/4 135/6/4
f 135/6/4 134/6/4 136/6/4
f 137/6/4 138/6/4 139/6/4
f 139/6/4 138/6/4 140/6/4
f 141/6/4 142/6/4 143/6/4
f 143/6/4 142/6/4 144/6/4
f 145/4/4 146/4/4 147/4/4
f 147/4/4 146/4/4 148/4/4
f 149/4/4 150/4/4 151/4/4
f 151/4/4 150/4/4 152/4/4
f 153/6/4 154/6/4 155/6/4
f 155/6/4 154/6/4 156/6/4
f 157/6/4 158/6/4 159/6/4
f 159/6/4 158/6/4 160/6/4
f 161/6/4 162/6/4 163/6/4
f 163/6/4 162/6/4 164/6/4
f 165/6/4 166/6/4 167/6/4
f 167/6/4 166/6/4 168/6/4
f 169/6/4 170/6/4 171/6/4
f 171/6/4 170/6/4 172/6/4
f 173/6/4 174/6/4 175/6/4
f 175/6/4 174/6/4 176/6/4
f 180/6/5 178/6/5 177/6/5
f 181/6/5 178/6/5 180/6/5
f 183/6/5 180/6/5 179/6/5
f 183/1/5 181/1/5 180/1/5
f 184/6/5 182/6/5 181/6/5
f 184/1/5 181/1/5 183/1/5
f 185/6/5 183/6/5 179/6/5
f 185/2/5 184/2/5 183/2/5
f 186/6/5 182/6/5 184/6/5
f 186/2/5 184/2/5 185/2/5
f 188/6/5 185/6/5 179/6/5
f 189/3/5 186/3/5 185/3/5
f 189/6/5 185/6/5 188/6/5
f 190/6/5 182/6/5 186/6/5
f 190/3/5 186/3/5 189/3/5
f 191/6/5 182/6/5 190/6/5
f 194/6/5 188/6/5 187/6/5
f 195/6/5 188/6/5 194/6/5
f 196/6/5 188/6/5 195/6/5
f 197/6/5 188/6/5 196/6/5
f 198/4/5 190/4/5 189/4/5
f 199/4/5 190/4/5 198/4/5
f 200/6/5 192/6/5 191/6/5
f 201/6/5 192/6/5 200/6/5
f 202/6/5 192/6/5 201/6/5
f 203/6/5 192/6/5 202/6/5
f 205/6/5 194/6/5 193/6/5
f 206/1/5 195/1/5 194/1/5
f 206/6/5 194/6/5 205/6/5
f 207/2/5 196/2/5 195/2/5
f 207/1/5 195/1/5 206/1/5
f 208/3/5 197/3/5 196/3/5
f 208/2/5 196/2/5 207/2/5
f 209/4/5 198/4/5 197/4/5
f 209/3/5 197/3/5 208/3/5
f 210/5/5 199/5/5 198/5/5
f 210/4/5 198/4/5 209/4/5
f 211/4/5 200/4/5 199/4/5
f 211/5/5 199/5/5 210/5/5
f 212/3/5 201/3/5 200/3/5
f 212/4/5 200/4/5 211/4/5
f 213/2/5 202/2/5 201/2/5
f 213/3/5 201/3/5 212/3/5
f 214/1/5 203/1/5 202/1/5
f 214/2/5 202/2/5 213/2/5
f 215/6/5 204/6/5 203/6/5
f 215/1/5 203/1/5 214/1/5
f 216/6/5 204/6/5 215/6/5
f 217/6/5 209/6/5 208/6/5
f 217/6/5 207/6/5 206/6/5
f 217/6/5 208/6/5 207/6/5
f 218/6/5 209/6/5 217/6/5
f 219/4/5 211/4/5 210/4/5
f 220/4/5 211/4/5 219/4/5
f 221/6/5 215/6/5 214/6/5
f 221/6/5 214/6/5 213/6/5
f 221/6/5 213/6/5 212/6/5
f 222/6/5 215/6/5 221/6/5
f 223/3/5 220/3/5 219/3/5
f 223/6/5 219/6/5 218/6/5
f 224/6/5 221/6/5 220/6/5
f 224/3/5 220/3/5 223/3/5
f 225/6/5 223/6/5 218/6/5
f 225/2/5 224/2/5 223/2/5
f 226/6/5 221/6/5 224/6/5
f 226/2/5 224/2/5 225/2/5
f 227/6/5 225/6/5 218/6/5
f 228/1/5 226/1/5 225/1/5
f 228/6/5 225/6/5 227/6/5
f 229/6/5 221/6/5 226/6/5
f 229/1/5 226/1/5 228/1/5
f 230/6/5 221/6/5 229/6/5
f 231/6/5 229/6/5 228/6/5
f 232/6/5 229/6/5 231/6/5
f 233/6/6 234/6/6 236/6/6
f 236/6/6 234/6/6 237/6/6
f 235/6/6 236/6/6 239/6/6
f 236/1/6 237/1/6 239/1/6
f 237/6/6 238/6/6 240/6/6
f 239/1/6 237/1/6 240/1/6
f 235/6/6 239/6/6 241/6/6
f 239/2/6 240/2/6 241/2/6
f 240/6/6 238/6/6 242/6/6
f 241/2/6 240/2/6 242/2/6
f 235/6/6 241/6/6 244/6/6
f 241/3/6 242/3/6 245/3/6
f 244/6/6 241/6/6 245/6/6
f 242/6/6 238/6/6 246/6/6
f 245/3/6 242/3/6 246/3/6
f 246/6/6 238/6/6 247/6/6
f 243/6/6 244/6/6 250/6/6
f 250/6/6 244/6/6 251/6/6
f 251/6/6 244/6/6 252/6/6
f 252/6/6 244/6/6 253/6/6
f 245/4/6 246/4/6 254/4/6
f 254/4/6 246/4/6 255/4/6
f 247/6/6 248/6/6 256/6/6
f 256/6/6 248/6/6 257/6/6
f 257/6/6 248/6/6 258/6/6
f 258/6/6 248/6/6 259/6/6
f 249/6/6 250/6/6 261/6/6
f 250/1/6 251/1/6 262/1/6
f 261/6/6 250/6/6 262/6/6
f 251/2/6 252/2/6 263/2/6
f 262/1/6 251/1/6 263/1/6
f 252/3/6 253/3/6 264/3/6
f 263/2/6 252/2/6 264/2/6
f 253/4/6 254/4/6 265/4/6
f 264/3/6 253/3/6 265/3/6
f 254/5/6 255/5/6 266/5/6
f 265/4/6 254/4/6 266/4/6
f 255/4/6 256/4/6 267/4/6
f 266/5/6 255/5/6 267/5/6
f 256/3/6 257/3/6 268/3/6
f 267/4/6 256/4/6 268/4/6
f 257/2/6 258/2/6 269/2/6
f 268/3/6 257/3/6 269/3/6
f 258/1/6 259/1/6 270/1/6
f 269/2/6 258/2/6 270/2/6
f 259/6/6 260/6/6 271/6/6
f 270/1/6 259/1/6 271/1/6
f 271/6/6 260/6/6 272/6/6
f 264/6/6 265/6/6 273/6/6
f 262/6/6 263/6/6 273/6/6
f 263/6/6 264/6/6 273/6/6
f 273/6/6 265/6/6 274/6/6
f 266/4/6 267/4/6 275/4/6
f 275/4/6 267/4/6 276/4/6
f 270/6/6 271/6/6 277/6/6
f 269/6/6 270/6/6 277/6/6
f 268/6/6 269/6/6 277/6/6
f 277/6/6 271/6/6 278/6/6
f 275/3/6 276/3/6 279/3/6
f 274/6/6 275/6/6 279/6/6
f 276/6/6 277/6/6 280/6/6
f 279/3/6 276/3/6 280/3/6
f 274/6/6 279/6/6 281/6/6
f 279/2/6 280/2/6 281/2/6
f 280/6/6 277/6/6 282/6/6
f 281/2/6 280/2/6 282/2/6
f 274/6/6 281/6/6 283/6/6
f 281/1/6 282/1/6 284/1/6
f 283/6/6 281/6/6 284/6/6
f 282/6/6 277/6/6 285/6/6
f 284/1/6 282/1/6 285/1/6
f 285/6/6 277/6/6 286/6/6
f 284/6/6 285/6/6 287/6/6
f 287/6/6 285/6/6 288/6/6
