# MagicaVoxel @ Ephtracy

# group
g flower3

# material
mtllib flower3.mtl
usemtl palette

# normals
vn -1 0 0
vn 1 0 0
vn 0 0 1
vn 0 0 -1
vn 0 -1 0
vn 0 1 0

# texcoords
vt 0.384766 0.5
vt 0.443359 0.5
vt 0.462891 0.5
vt 0.505859 0.5
vt 0.634766 0.5
vt 0.697266 0.5
vt 0.720703 0.5
vt 0.794922 0.5
vt 0.798828 0.5
vt 0.818359 0.5
vt 0.845703 0.5
vt 0.880859 0.5
vt 0.916016 0.5
vt 0.943359 0.5
vt 0.951172 0.5
vt 0.970703 0.5

# verts
v -5 1 2.5
v -5 1 1.5
v -5 2 2.5
v -5 2 1.5
v -4 0 2.5
v -4 0 1.5
v -4 1 3.5
v -4 1 2.5
v -4 1 1.5
v -4 1 0.5
v -4 2 3.5
v -4 2 2.5
v -4 2 1.5
v -4 2 0.5
v -4 3 2.5
v -4 3 1.5
v -3 1 6.5
v -3 1 5.5
v -3 2 6.5
v -3 2 5.5
v -2 0 6.5
v -2 0 5.5
v -2 1 7.5
v -2 1 6.5
v -2 1 5.5
v -2 1 4.5
v -2 1 -0.5
v -2 1 -1.5
v -2 2 7.5
v -2 2 6.5
v -2 2 5.5
v -2 2 4.5
v -2 2 -0.5
v -2 2 -1.5
v -2 3 6.5
v -2 3 5.5
v -1 0 -0.5
v -1 0 -1.5
v -1 1 0.5
v -1 1 -0.5
v -1 1 -1.5
v -1 1 -2.5
v -1 2 0.5
v -1 2 -0.5
v -1 2 -1.5
v -1 2 -2.5
v -1 3 -0.5
v -1 3 -1.5
v 0 1 3.5
v 0 1 2.5
v 0 1 -5.5
v 0 1 -6.5
v 0 2 3.5
v 0 2 2.5
v 0 2 -5.5
v 0 2 -6.5
v 1 0 3.5
v 1 0 2.5
v 1 0 -5.5
v 1 0 -6.5
v 1 1 4.5
v 1 1 3.5
v 1 1 2.5
v 1 1 1.5
v 1 1 -4.5
v 1 1 -5.5
v 1 1 -6.5
v 1 1 -7.5
v 1 2 4.5
v 1 2 3.5
v 1 2 2.5
v 1 2 1.5
v 1 2 -4.5
v 1 2 -5.5
v 1 2 -6.5
v 1 2 -7.5
v 1 3 3.5
v 1 3 2.5
v 1 3 -5.5
v 1 3 -6.5
v 2 1 -0.5
v 2 1 -1.5
v 2 2 -0.5
v 2 2 -1.5
v 3 0 -0.5
v 3 0 -1.5
v 3 1 0.5
v 3 1 -0.5
v 3 1 -1.5
v 3 1 -2.5
v 3 2 0.5
v 3 2 -0.5
v 3 2 -1.5
v 3 2 -2.5
v 3 3 -0.5
v 3 3 -1.5
v -3 0 2.5
v -3 0 1.5
v -3 1 3.5
v -3 1 2.5
v -3 1 1.5
v -3 1 0.5
v -3 2 3.5
v -3 2 2.5
v -3 2 1.5
v -3 2 0.5
v -3 3 2.5
v -3 3 1.5
v -2 1 2.5
v -2 1 1.5
v -2 2 2.5
v -2 2 1.5
v -1 0 6.5
v -1 0 5.5
v -1 1 7.5
v -1 1 6.5
v -1 1 5.5
v -1 1 4.5
v -1 2 7.5
v -1 2 6.5
v -1 2 5.5
v -1 2 4.5
v -1 3 6.5
v -1 3 5.5
v 0 0 -0.5
v 0 0 -1.5
v 0 1 6.5
v 0 1 5.5
v 0 1 0.5
v 0 1 -0.5
v 0 1 -1.5
v 0 1 -2.5
v 0 2 6.5
v 0 2 5.5
v 0 2 0.5
v 0 2 -0.5
v 0 2 -1.5
v 0 2 -2.5
v 0 3 -0.5
v 0 3 -1.5
v 1 1 -0.5
v 1 1 -1.5
v 1 2 -0.5
v 1 2 -1.5
v 2 0 3.5
v 2 0 2.5
v 2 0 -5.5
v 2 0 -6.5
v 2 1 4.5
v 2 1 3.5
v 2 1 2.5
v 2 1 1.5
v 2 1 -4.5
v 2 1 -5.5
v 2 1 -6.5
v 2 1 -7.5
v 2 2 4.5
v 2 2 3.5
v 2 2 2.5
v 2 2 1.5
v 2 2 -4.5
v 2 2 -5.5
v 2 2 -6.5
v 2 2 -7.5
v 2 3 3.5
v 2 3 2.5
v 2 3 -5.5
v 2 3 -6.5
v 3 1 3.5
v 3 1 2.5
v 3 1 -5.5
v 3 1 -6.5
v 3 2 3.5
v 3 2 2.5
v 3 2 -5.5
v 3 2 -6.5
v 4 0 -0.5
v 4 0 -1.5
v 4 1 0.5
v 4 1 -0.5
v 4 1 -1.5
v 4 1 -2.5
v 4 2 0.5
v 4 2 -0.5
v 4 2 -1.5
v 4 2 -2.5
v 4 3 -0.5
v 4 3 -1.5
v 5 1 -0.5
v 5 1 -1.5
v 5 2 -0.5
v 5 2 -1.5
v -2 1 7.5
v -2 2 7.5
v -1 1 7.5
v -1 2 7.5
v -3 1 6.5
v -3 2 6.5
v -2 0 6.5
v -2 1 6.5
v -2 2 6.5
v -2 3 6.5
v -1 0 6.5
v -1 1 6.5
v -1 2 6.5
v -1 3 6.5
v 0 1 6.5
v 0 2 6.5
v 1 1 4.5
v 1 2 4.5
v 2 1 4.5
v 2 2 4.5
v -4 1 3.5
v -4 2 3.5
v -3 1 3.5
v -3 2 3.5
v 0 1 3.5
v 0 2 3.5
v 1 0 3.5
v 1 1 3.5
v 1 2 3.5
v 1 3 3.5
v 2 0 3.5
v 2 1 3.5
v 2 2 3.5
v 2 3 3.5
v 3 1 3.5
v 3 2 3.5
v -5 1 2.5
v -5 2 2.5
v -4 0 2.5
v -4 1 2.5
v -4 2 2.5
v -4 3 2.5
v -3 0 2.5
v -3 1 2.5
v -3 2 2.5
v -3 3 2.5
v -2 1 2.5
v -2 2 2.5
v -1 1 0.5
v -1 2 0.5
v 0 1 0.5
v 0 2 0.5
v 3 1 0.5
v 3 2 0.5
v 4 1 0.5
v 4 2 0.5
v -2 1 -0.5
v -2 2 -0.5
v -1 0 -0.5
v -1 1 -0.5
v -1 2 -0.5
v -1 3 -0.5
v 0 0 -0.5
v 0 1 -0.5
v 0 2 -0.5
v 0 3 -0.5
v 1 1 -0.5
v 1 2 -0.5
v 2 1 -0.5
v 2 2 -0.5
v 3 0 -0.5
v 3 1 -0.5
v 3 2 -0.5
v 3 3 -0.5
v 4 0 -0.5
v 4 1 -0.5
v 4 2 -0.5
v 4 3 -0.5
v 5 1 -0.5
v 5 2 -0.5
v 1 1 -4.5
v 1 2 -4.5
v 2 1 -4.5
v 2 2 -4.5
v 0 1 -5.5
v 0 2 -5.5
v 1 0 -5.5
v 1 1 -5.5
v 1 2 -5.5
v 1 3 -5.5
v 2 0 -5.5
v 2 1 -5.5
v 2 2 -5.5
v 2 3 -5.5
v 3 1 -5.5
v 3 2 -5.5
v -3 1 5.5
v -3 2 5.5
v -2 0 5.5
v -2 1 5.5
v -2 2 5.5
v -2 3 5.5
v -1 0 5.5
v -1 1 5.5
v -1 2 5.5
v -1 3 5.5
v 0 1 5.5
v 0 2 5.5
v -2 1 4.5
v -2 2 4.5
v -1 1 4.5
v -1 2 4.5
v 0 1 2.5
v 0 2 2.5
v 1 0 2.5
v 1 1 2.5
v 1 2 2.5
v 1 3 2.5
v 2 0 2.5
v 2 1 2.5
v 2 2 2.5
v 2 3 2.5
v 3 1 2.5
v 3 2 2.5
v -5 1 1.5
v -5 2 1.5
v -4 0 1.5
v -4 1 1.5
v -4 2 1.5
v -4 3 1.5
v -3 0 1.5
v -3 1 1.5
v -3 2 1.5
v -3 3 1.5
v -2 1 1.5
v -2 2 1.5
v 1 1 1.5
v 1 2 1.5
v 2 1 1.5
v 2 2 1.5
v -4 1 0.5
v -4 2 0.5
v -3 1 0.5
v -3 2 0.5
v -2 1 -1.5
v -2 2 -1.5
v -1 0 -1.5
v -1 1 -1.5
v -1 2 -1.5
v -1 3 -1.5
v 0 0 -1.5
v 0 1 -1.5
v 0 2 -1.5
v 0 3 -1.5
v 1 1 -1.5
v 1 2 -1.5
v 2 1 -1.5
v 2 2 -1.5
v 3 0 -1.5
v 3 1 -1.5
v 3 2 -1.5
v 3 3 -1.5
v 4 0 -1.5
v 4 1 -1.5
v 4 2 -1.5
v 4 3 -1.5
v 5 1 -1.5
v 5 2 -1.5
v -1 1 -2.5
v -1 2 -2.5
v 0 1 -2.5
v 0 2 -2.5
v 3 1 -2.5
v 3 2 -2.5
v 4 1 -2.5
v 4 2 -2.5
v 0 1 -6.5
v 0 2 -6.5
v 1 0 -6.5
v 1 1 -6.5
v 1 2 -6.5
v 1 3 -6.5
v 2 0 -6.5
v 2 1 -6.5
v 2 2 -6.5
v 2 3 -6.5
v 3 1 -6.5
v 3 2 -6.5
v 1 1 -7.5
v 1 2 -7.5
v 2 1 -7.5
v 2 2 -7.5
v -2 0 6.5
v -1 0 6.5
v -2 0 5.5
v -1 0 5.5
v 1 0 3.5
v 2 0 3.5
v -4 0 2.5
v -3 0 2.5
v 1 0 2.5
v 2 0 2.5
v -4 0 1.5
v -3 0 1.5
v -1 0 -0.5
v 0 0 -0.5
v 3 0 -0.5
v 4 0 -0.5
v -1 0 -1.5
v 0 0 -1.5
v 3 0 -1.5
v 4 0 -1.5
v 1 0 -5.5
v 2 0 -5.5
v 1 0 -6.5
v 2 0 -6.5
v -2 1 7.5
v -1 1 7.5
v -3 1 6.5
v -2 1 6.5
v -1 1 6.5
v 0 1 6.5
v -3 1 5.5
v -2 1 5.5
v -1 1 5.5
v 0 1 5.5
v -2 1 4.5
v -1 1 4.5
v 1 1 4.5
v 2 1 4.5
v -4 1 3.5
v -3 1 3.5
v 0 1 3.5
v 1 1 3.5
v 2 1 3.5
v 3 1 3.5
v -5 1 2.5
v -4 1 2.5
v -3 1 2.5
v -2 1 2.5
v 0 1 2.5
v 1 1 2.5
v 2 1 2.5
v 3 1 2.5
v -5 1 1.5
v -4 1 1.5
v -3 1 1.5
v -2 1 1.5
v 1 1 1.5
v 2 1 1.5
v -4 1 0.5
v -3 1 0.5
v -1 1 0.5
v 0 1 0.5
v 3 1 0.5
v 4 1 0.5
v -2 1 -0.5
v -1 1 -0.5
v 0 1 -0.5
v 1 1 -0.5
v 2 1 -0.5
v 3 1 -0.5
v 4 1 -0.5
v 5 1 -0.5
v -2 1 -1.5
v -1 1 -1.5
v 0 1 -1.5
v 1 1 -1.5
v 2 1 -1.5
v 3 1 -1.5
v 4 1 -1.5
v 5 1 -1.5
v -1 1 -2.5
v 0 1 -2.5
v 3 1 -2.5
v 4 1 -2.5
v 1 1 -4.5
v 2 1 -4.5
v 0 1 -5.5
v 1 1 -5.5
v 2 1 -5.5
v 3 1 -5.5
v 0 1 -6.5
v 1 1 -6.5
v 2 1 -6.5
v 3 1 -6.5
v 1 1 -7.5
v 2 1 -7.5
v -2 2 7.5
v -1 2 7.5
v -3 2 6.5
v -2 2 6.5
v -1 2 6.5
v 0 2 6.5
v -3 2 5.5
v -2 2 5.5
v -1 2 5.5
v 0 2 5.5
v -2 2 4.5
v -1 2 4.5
v 1 2 4.5
v 2 2 4.5
v -4 2 3.5
v -3 2 3.5
v 0 2 3.5
v 1 2 3.5
v 2 2 3.5
v 3 2 3.5
v -5 2 2.5
v -4 2 2.5
v -3 2 2.5
v -2 2 2.5
v 0 2 2.5
v 1 2 2.5
v 2 2 2.5
v 3 2 2.5
v -5 2 1.5
v -4 2 1.5
v -3 2 1.5
v -2 2 1.5
v 1 2 1.5
v 2 2 1.5
v -4 2 0.5
v -3 2 0.5
v -1 2 0.5
v 0 2 0.5
v 3 2 0.5
v 4 2 0.5
v -2 2 -0.5
v -1 2 -0.5
v 0 2 -0.5
v 1 2 -0.5
v 2 2 -0.5
v 3 2 -0.5
v 4 2 -0.5
v 5 2 -0.5
v -2 2 -1.5
v -1 2 -1.5
v 0 2 -1.5
v 1 2 -1.5
v 2 2 -1.5
v 3 2 -1.5
v 4 2 -1.5
v 5 2 -1.5
v -1 2 -2.5
v 0 2 -2.5
v 3 2 -2.5
v 4 2 -2.5
v 1 2 -4.5
v 2 2 -4.5
v 0 2 -5.5
v 1 2 -5.5
v 2 2 -5.5
v 3 2 -5.5
v 0 2 -6.5
v 1 2 -6.5
v 2 2 -6.5
v 3 2 -6.5
v 1 2 -7.5
v 2 2 -7.5
v -2 3 6.5
v -1 3 6.5
v -2 3 5.5
v -1 3 5.5
v 1 3 3.5
v 2 3 3.5
v -4 3 2.5
v -3 3 2.5
v 1 3 2.5
v 2 3 2.5
v -4 3 1.5
v -3 3 1.5
v -1 3 -0.5
v 0 3 -0.5
v 3 3 -0.5
v 4 3 -0.5
v -1 3 -1.5
v 0 3 -1.5
v 3 3 -1.5
v 4 3 -1.5
v 1 3 -5.5
v 2 3 -5.5
v 1 3 -6.5
v 2 3 -6.5

# faces
f 3/12/1 2/12/1 1/12/1
f 4/12/1 2/12/1 3/12/1
f 8/8/1 6/8/1 5/8/1
f 9/8/1 6/8/1 8/8/1
f 11/12/1 8/12/1 7/12/1
f 12/12/1 8/12/1 11/12/1
f 13/12/1 10/12/1 9/12/1
f 14/12/1 10/12/1 13/12/1
f 15/3/1 13/3/1 12/3/1
f 16/3/1 13/3/1 15/3/1
f 19/10/1 18/10/1 17/10/1
f 20/10/1 18/10/1 19/10/1
f 24/8/1 22/8/1 21/8/1
f 25/8/1 22/8/1 24/8/1
f 29/10/1 24/10/1 23/10/1
f 30/10/1 24/10/1 29/10/1
f 31/10/1 26/10/1 25/10/1
f 32/10/1 26/10/1 31/10/1
f 33/15/1 28/15/1 27/15/1
f 34/15/1 28/15/1 33/15/1
f 35/11/1 31/11/1 30/11/1
f 36/11/1 31/11/1 35/11/1
f 40/8/1 38/8/1 37/8/1
f 41/8/1 38/8/1 40/8/1
f 43/14/1 40/14/1 39/14/1
f 44/14/1 40/14/1 43/14/1
f 45/14/1 42/14/1 41/14/1
f 46/14/1 42/14/1 45/14/1
f 47/7/1 45/7/1 44/7/1
f 48/7/1 45/7/1 47/7/1
f 53/6/1 50/6/1 49/6/1
f 54/6/1 50/6/1 53/6/1
f 55/3/1 52/3/1 51/3/1
f 56/3/1 52/3/1 55/3/1
f 62/8/1 58/8/1 57/8/1
f 63/8/1 58/8/1 62/8/1
f 66/9/1 60/9/1 59/9/1
f 67/9/1 60/9/1 66/9/1
f 69/6/1 62/6/1 61/6/1
f 70/6/1 62/6/1 69/6/1
f 71/6/1 64/6/1 63/6/1
f 72/6/1 64/6/1 71/6/1
f 73/3/1 66/3/1 65/3/1
f 74/3/1 66/3/1 73/3/1
f 75/3/1 68/3/1 67/3/1
f 76/3/1 68/3/1 75/3/1
f 77/4/1 71/4/1 70/4/1
f 78/4/1 71/4/1 77/4/1
f 79/2/1 75/2/1 74/2/1
f 80/2/1 75/2/1 79/2/1
f 83/5/1 82/5/1 81/5/1
f 84/5/1 82/5/1 83/5/1
f 88/9/1 86/9/1 85/9/1
f 89/9/1 86/9/1 88/9/1
f 91/5/1 88/5/1 87/5/1
f 92/5/1 88/5/1 91/5/1
f 93/5/1 90/5/1 89/5/1
f 94/5/1 90/5/1 93/5/1
f 95/1/1 93/1/1 92/1/1
f 96/1/1 93/1/1 95/1/1
f 97/8/2 98/8/2 100/8/2
f 100/8/2 98/8/2 101/8/2
f 99/12/2 100/12/2 103/12/2
f 103/12/2 100/12/2 104/12/2
f 101/12/2 102/12/2 105/12/2
f 105/12/2 102/12/2 106/12/2
f 104/3/2 105/3/2 107/3/2
f 107/3/2 105/3/2 108/3/2
f 109/12/2 110/12/2 111/12/2
f 111/12/2 110/12/2 112/12/2
f 113/8/2 114/8/2 116/8/2
f 116/8/2 114/8/2 117/8/2
f 115/10/2 116/10/2 119/10/2
f 119/10/2 116/10/2 120/10/2
f 117/10/2 118/10/2 121/10/2
f 121/10/2 118/10/2 122/10/2
f 120/11/2 121/11/2 123/11/2
f 123/11/2 121/11/2 124/11/2
f 125/8/2 126/8/2 130/8/2
f 130/8/2 126/8/2 131/8/2
f 127/10/2 128/10/2 133/10/2
f 133/10/2 128/10/2 134/10/2
f 129/14/2 130/14/2 135/14/2
f 135/14/2 130/14/2 136/14/2
f 131/14/2 132/14/2 137/14/2
f 137/14/2 132/14/2 138/14/2
f 136/7/2 137/7/2 139/7/2
f 139/7/2 137/7/2 140/7/2
f 141/15/2 142/15/2 143/15/2
f 143/15/2 142/15/2 144/15/2
f 145/8/2 146/8/2 150/8/2
f 150/8/2 146/8/2 151/8/2
f 147/9/2 148/9/2 154/9/2
f 154/9/2 148/9/2 155/9/2
f 149/6/2 150/6/2 157/6/2
f 157/6/2 150/6/2 158/6/2
f 151/6/2 152/6/2 159/6/2
f 159/6/2 152/6/2 160/6/2
f 153/3/2 154/3/2 161/3/2
f 161/3/2 154/3/2 162/3/2
f 155/3/2 156/3/2 163/3/2
f 163/3/2 156/3/2 164/3/2
f 158/4/2 159/4/2 165/4/2
f 165/4/2 159/4/2 166/4/2
f 162/2/2 163/2/2 167/2/2
f 167/2/2 163/2/2 168/2/2
f 169/6/2 170/6/2 173/6/2
f 173/6/2 170/6/2 174/6/2
f 171/3/2 172/3/2 175/3/2
f 175/3/2 172/3/2 176/3/2
f 177/9/2 178/9/2 180/9/2
f 180/9/2 178/9/2 181/9/2
f 179/5/2 180/5/2 183/5/2
f 183/5/2 180/5/2 184/5/2
f 181/5/2 182/5/2 185/5/2
f 185/5/2 182/5/2 186/5/2
f 184/1/2 185/1/2 187/1/2
f 187/1/2 185/1/2 188/1/2
f 189/5/2 190/5/2 191/5/2
f 191/5/2 190/5/2 192/5/2
f 195/10/3 194/10/3 193/10/3
f 196/10/3 194/10/3 195/10/3
f 200/10/3 198/10/3 197/10/3
f 201/10/3 198/10/3 200/10/3
f 203/8/3 200/8/3 199/8/3
f 204/8/3 200/8/3 203/8/3
f 205/11/3 202/11/3 201/11/3
f 206/11/3 202/11/3 205/11/3
f 207/10/3 205/10/3 204/10/3
f 208/10/3 205/10/3 207/10/3
f 211/6/3 210/6/3 209/6/3
f 212/6/3 210/6/3 211/6/3
f 215/12/3 214/12/3 213/12/3
f 216/12/3 214/12/3 215/12/3
f 220/6/3 218/6/3 217/6/3
f 221/6/3 218/6/3 220/6/3
f 223/8/3 220/8/3 219/8/3
f 224/8/3 220/8/3 223/8/3
f 225/4/3 222/4/3 221/4/3
f 226/4/3 222/4/3 225/4/3
f 227/6/3 225/6/3 224/6/3
f 228/6/3 225/6/3 227/6/3
f 232/12/3 230/12/3 229/12/3
f 233/12/3 230/12/3 232/12/3
f 235/8/3 232/8/3 231/8/3
f 236/8/3 232/8/3 235/8/3
f 237/3/3 234/3/3 233/3/3
f 238/3/3 234/3/3 237/3/3
f 239/12/3 237/12/3 236/12/3
f 240/12/3 237/12/3 239/12/3
f 243/14/3 242/14/3 241/14/3
f 244/14/3 242/14/3 243/14/3
f 247/5/3 246/5/3 245/5/3
f 248/5/3 246/5/3 247/5/3
f 252/15/3 250/15/3 249/15/3
f 253/15/3 250/15/3 252/15/3
f 255/8/3 252/8/3 251/8/3
f 256/8/3 252/8/3 255/8/3
f 257/7/3 254/7/3 253/7/3
f 258/7/3 254/7/3 257/7/3
f 259/15/3 257/15/3 256/15/3
f 260/15/3 257/15/3 259/15/3
f 264/5/3 262/5/3 261/5/3
f 265/5/3 262/5/3 264/5/3
f 267/9/3 264/9/3 263/9/3
f 268/9/3 264/9/3 267/9/3
f 269/1/3 266/1/3 265/1/3
f 270/1/3 266/1/3 269/1/3
f 271/5/3 269/5/3 268/5/3
f 272/5/3 269/5/3 271/5/3
f 275/3/3 274/3/3 273/3/3
f 276/3/3 274/3/3 275/3/3
f 280/3/3 278/3/3 277/3/3
f 281/3/3 278/3/3 280/3/3
f 283/9/3 280/9/3 279/9/3
f 284/9/3 280/9/3 283/9/3
f 285/2/3 282/2/3 281/2/3
f 286/2/3 282/2/3 285/2/3
f 287/3/3 285/3/3 284/3/3
f 288/3/3 285/3/3 287/3/3
f 289/10/4 290/10/4 292/10/4
f 292/10/4 290/10/4 293/10/4
f 291/8/4 292/8/4 295/8/4
f 295/8/4 292/8/4 296/8/4
f 293/11/4 294/11/4 297/11/4
f 297/11/4 294/11/4 298/11/4
f 296/10/4 297/10/4 299/10/4
f 299/10/4 297/10/4 300/10/4
f 301/10/4 302/10/4 303/10/4
f 303/10/4 302/10/4 304/10/4
f 305/6/4 306/6/4 308/6/4
f 308/6/4 306/6/4 309/6/4
f 307/8/4 308/8/4 311/8/4
f 311/8/4 308/8/4 312/8/4
f 309/4/4 310/4/4 313/4/4
f 313/4/4 310/4/4 314/4/4
f 312/6/4 313/6/4 315/6/4
f 315/6/4 313/6/4 316/6/4
f 317/12/4 318/12/4 320/12/4
f 320/12/4 318/12/4 321/12/4
f 319/8/4 320/8/4 323/8/4
f 323/8/4 320/8/4 324/8/4
f 321/3/4 322/3/4 325/3/4
f 325/3/4 322/3/4 326/3/4
f 324/12/4 325/12/4 327/12/4
f 327/12/4 325/12/4 328/12/4
f 329/6/4 330/6/4 331/6/4
f 331/6/4 330/6/4 332/6/4
f 333/12/4 334/12/4 335/12/4
f 335/12/4 334/12/4 336/12/4
f 337/15/4 338/15/4 340/15/4
f 340/15/4 338/15/4 341/15/4
f 339/8/4 340/8/4 343/8/4
f 343/8/4 340/8/4 344/8/4
f 341/7/4 342/7/4 345/7/4
f 345/7/4 342/7/4 346/7/4
f 344/15/4 345/15/4 347/15/4
f 347/15/4 345/15/4 348/15/4
f 349/5/4 350/5/4 352/5/4
f 352/5/4 350/5/4 353/5/4
f 351/9/4 352/9/4 355/9/4
f 355/9/4 352/9/4 356/9/4
f 353/1/4 354/1/4 357/1/4
f 357/1/4 354/1/4 358/1/4
f 356/5/4 357/5/4 359/5/4
f 359/5/4 357/5/4 360/5/4
f 361/14/4 362/14/4 363/14/4
f 363/14/4 362/14/4 364/14/4
f 365/5/4 366/5/4 367/5/4
f 367/5/4 366/5/4 368/5/4
f 369/3/4 370/3/4 372/3/4
f 372/3/4 370/3/4 373/3/4
f 371/9/4 372/9/4 375/9/4
f 375/9/4 372/9/4 376/9/4
f 373/2/4 374/2/4 377/2/4
f 377/2/4 374/2/4 378/2/4
f 376/3/4 377/3/4 379/3/4
f 379/3/4 377/3/4 380/3/4
f 381/3/4 382/3/4 383/3/4
f 383/3/4 382/3/4 384/3/4
f 387/8/5 386/8/5 385/8/5
f 388/8/5 386/8/5 387/8/5
f 393/8/5 390/8/5 389/8/5
f 394/8/5 390/8/5 393/8/5
f 395/8/5 392/8/5 391/8/5
f 396/8/5 392/8/5 395/8/5
f 401/8/5 398/8/5 397/8/5
f 402/8/5 398/8/5 401/8/5
f 403/9/5 400/9/5 399/9/5
f 404/9/5 400/9/5 403/9/5
f 407/9/5 406/9/5 405/9/5
f 408/9/5 406/9/5 407/9/5
f 412/10/5 410/10/5 409/10/5
f 413/10/5 410/10/5 412/10/5
f 415/10/5 412/10/5 411/10/5
f 416/10/5 412/10/5 415/10/5
f 417/10/5 414/10/5 413/10/5
f 418/10/5 414/10/5 417/10/5
f 419/10/5 417/10/5 416/10/5
f 420/10/5 417/10/5 419/10/5
f 426/6/5 422/6/5 421/6/5
f 427/6/5 422/6/5 426/6/5
f 430/12/5 424/12/5 423/12/5
f 431/12/5 424/12/5 430/12/5
f 433/6/5 426/6/5 425/6/5
f 434/6/5 426/6/5 433/6/5
f 435/6/5 428/6/5 427/6/5
f 436/6/5 428/6/5 435/6/5
f 437/12/5 430/12/5 429/12/5
f 438/12/5 430/12/5 437/12/5
f 439/12/5 432/12/5 431/12/5
f 440/12/5 432/12/5 439/12/5
f 441/6/5 435/6/5 434/6/5
f 442/6/5 435/6/5 441/6/5
f 443/12/5 439/12/5 438/12/5
f 444/12/5 439/12/5 443/12/5
f 450/14/5 446/14/5 445/14/5
f 451/14/5 446/14/5 450/14/5
f 454/5/5 448/5/5 447/5/5
f 455/5/5 448/5/5 454/5/5
f 457/15/5 450/15/5 449/15/5
f 458/15/5 450/15/5 457/15/5
f 459/15/5 452/15/5 451/15/5
f 460/15/5 452/15/5 459/15/5
f 461/5/5 454/5/5 453/5/5
f 462/5/5 454/5/5 461/5/5
f 463/5/5 456/5/5 455/5/5
f 464/5/5 456/5/5 463/5/5
f 465/14/5 459/14/5 458/14/5
f 466/14/5 459/14/5 465/14/5
f 467/5/5 463/5/5 462/5/5
f 468/5/5 463/5/5 467/5/5
f 472/3/5 470/3/5 469/3/5
f 473/3/5 470/3/5 472/3/5
f 475/3/5 472/3/5 471/3/5
f 476/3/5 472/3/5 475/3/5
f 477/3/5 474/3/5 473/3/5
f 478/3/5 474/3/5 477/3/5
f 479/3/5 477/3/5 476/3/5
f 480/3/5 477/3/5 479/3/5
f 481/10/6 482/10/6 484/10/6
f 484/10/6 482/10/6 485/10/6
f 483/10/6 484/10/6 487/10/6
f 487/10/6 484/10/6 488/10/6
f 485/10/6 486/10/6 489/10/6
f 489/10/6 486/10/6 490/10/6
f 488/10/6 489/10/6 491/10/6
f 491/10/6 489/10/6 492/10/6
f 493/6/6 494/6/6 498/6/6
f 498/6/6 494/6/6 499/6/6
f 495/12/6 496/12/6 502/12/6
f 502/12/6 496/12/6 503/12/6
f 497/6/6 498/6/6 505/6/6
f 505/6/6 498/6/6 506/6/6
f 499/6/6 500/6/6 507/6/6
f 507/6/6 500/6/6 508/6/6
f 501/12/6 502/12/6 509/12/6
f 509/12/6 502/12/6 510/12/6
f 503/12/6 504/12/6 511/12/6
f 511/12/6 504/12/6 512/12/6
f 506/6/6 507/6/6 513/6/6
f 513/6/6 507/6/6 514/6/6
f 510/12/6 511/12/6 515/12/6
f 515/12/6 511/12/6 516/12/6
f 517/14/6 518/14/6 522/14/6
f 522/14/6 518/14/6 523/14/6
f 519/5/6 520/5/6 526/5/6
f 526/5/6 520/5/6 527/5/6
f 521/15/6 522/15/6 529/15/6
f 529/15/6 522/15/6 530/15/6
f 523/15/6 524/15/6 531/15/6
f 531/15/6 524/15/6 532/15/6
f 525/5/6 526/5/6 533/5/6
f 533/5/6 526/5/6 534/5/6
f 527/5/6 528/5/6 535/5/6
f 535/5/6 528/5/6 536/5/6
f 530/14/6 531/14/6 537/14/6
f 537/14/6 531/14/6 538/14/6
f 534/5/6 535/5/6 539/5/6
f 539/5/6 535/5/6 540/5/6
f 541/3/6 542/3/6 544/3/6
f 544/3/6 542/3/6 545/3/6
f 543/3/6 544/3/6 547/3/6
f 547/3/6 544/3/6 548/3/6
f 545/3/6 546/3/6 549/3/6
f 549/3/6 546/3/6 550/3/6
f 548/3/6 549/3/6 551/3/6
f 551/3/6 549/3/6 552/3/6
f 553/11/6 554/11/6 555/11/6
f 555/11/6 554/11/6 556/11/6
f 557/4/6 558/4/6 561/4/6
f 561/4/6 558/4/6 562/4/6
f 559/3/6 560/3/6 563/3/6
f 563/3/6 560/3/6 564/3/6
f 565/7/6 566/7/6 569/7/6
f 569/7/6 566/7/6 570/7/6
f 567/1/6 568/1/6 571/1/6
f 571/1/6 568/1/6 572/1/6
f 573/2/6 574/2/6 575/2/6
f 575/2/6 574/2/6 576/2/6
