# MagicaVoxel @ Ephtracy

# group
g heart2

# material
mtllib heart2.mtl
usemtl palette

# normals
vn -1 0 0
vn 1 0 0
vn 0 0 1
vn 0 0 -1
vn 0 -1 0
vn 0 1 0

# texcoords
vt 0.939453 0.5
vt 0.943359 0.5
vt 0.947266 0.5
vt 0.951172 0.5

# verts
v -4 8 0.5
v -4 8 -0.5
v -4 11 0.5
v -4 11 -0.5
v -3 6 0.5
v -3 6 -0.5
v -3 8 0.5
v -3 8 -0.5
v -3 9 1.5
v -3 9 0.5
v -3 9 -0.5
v -3 9 -1.5
v -3 10 1.5
v -3 10 0.5
v -3 10 -0.5
v -3 10 -1.5
v -3 11 0.5
v -3 11 -0.5
v -3 12 0.5
v -3 12 -0.5
v -2 5 0.5
v -2 5 -0.5
v -2 6 0.5
v -2 6 -0.5
v -2 7 1.5
v -2 7 0.5
v -2 7 -0.5
v -2 7 -1.5
v -2 9 1.5
v -2 9 0.5
v -2 9 -0.5
v -2 9 -1.5
v -2 10 1.5
v -2 10 0.5
v -2 10 -0.5
v -2 10 -1.5
v -2 11 1.5
v -2 11 0.5
v -2 11 -0.5
v -2 11 -1.5
v -2 12 0.5
v -2 12 -0.5
v -2 13 0.5
v -2 13 -0.5
v -1 4 0.5
v -1 4 -0.5
v -1 5 0.5
v -1 5 -0.5
v -1 6 1.5
v -1 6 0.5
v -1 6 -0.5
v -1 6 -1.5
v -1 7 1.5
v -1 7 0.5
v -1 7 -0.5
v -1 7 -1.5
v -1 8 2.5
v -1 8 1.5
v -1 8 -1.5
v -1 8 -2.5
v -1 10 2.5
v -1 10 1.5
v -1 10 -1.5
v -1 10 -2.5
v -1 11 1.5
v -1 11 0.5
v -1 11 -0.5
v -1 11 -1.5
v -1 12 1.5
v -1 12 0.5
v -1 12 -0.5
v -1 12 -1.5
v 0 3 0.5
v 0 3 -0.5
v 0 4 0.5
v 0 4 -0.5
v 0 5 1.5
v 0 5 0.5
v 0 5 -0.5
v 0 5 -1.5
v 0 6 1.5
v 0 6 0.5
v 0 6 -0.5
v 0 6 -1.5
v 0 7 2.5
v 0 7 1.5
v 0 7 -1.5
v 0 7 -2.5
v 0 8 2.5
v 0 8 1.5
v 0 8 -1.5
v 0 8 -2.5
v 1 2 0.5
v 1 2 -0.5
v 1 3 0.5
v 1 3 -0.5
v 1 4 1.5
v 1 4 0.5
v 1 4 -0.5
v 1 4 -1.5
v 1 5 1.5
v 1 5 0.5
v 1 5 -0.5
v 1 5 -1.5
v 1 6 2.5
v 1 6 1.5
v 1 6 -1.5
v 1 6 -2.5
v 1 7 2.5
v 1 7 1.5
v 1 7 -1.5
v 1 7 -2.5
v 2 1 0.5
v 2 1 -0.5
v 2 2 0.5
v 2 2 -0.5
v 2 3 1.5
v 2 3 0.5
v 2 3 -0.5
v 2 3 -1.5
v 2 4 1.5
v 2 4 0.5
v 2 4 -0.5
v 2 4 -1.5
v 2 5 2.5
v 2 5 1.5
v 2 5 -1.5
v 2 5 -2.5
v 2 6 2.5
v 2 6 1.5
v 2 6 -1.5
v 2 6 -2.5
v 3 0 0.5
v 3 0 -0.5
v 3 1 0.5
v 3 1 -0.5
v 3 2 1.5
v 3 2 0.5
v 3 2 -0.5
v 3 2 -1.5
v 3 3 1.5
v 3 3 0.5
v 3 3 -0.5
v 3 3 -1.5
v 3 4 2.5
v 3 4 1.5
v 3 4 -1.5
v 3 4 -2.5
v 3 5 2.5
v 3 5 1.5
v 3 5 -1.5
v 3 5 -2.5
v 0 9 2.5
v 0 9 1.5
v 0 9 -1.5
v 0 9 -2.5
v 0 10 2.5
v 0 10 1.5
v 0 10 -1.5
v 0 10 -2.5
v 0 11 1.5
v 0 11 0.5
v 0 11 -0.5
v 0 11 -1.5
v 0 12 1.5
v 0 12 0.5
v 0 12 -0.5
v 0 12 -1.5
v 1 8 2.5
v 1 8 1.5
v 1 8 -1.5
v 1 8 -2.5
v 1 9 2.5
v 1 9 1.5
v 1 9 -1.5
v 1 9 -2.5
v 1 10 1.5
v 1 10 0.5
v 1 10 -0.5
v 1 10 -1.5
v 1 11 1.5
v 1 11 0.5
v 1 11 -0.5
v 1 11 -1.5
v 1 12 0.5
v 1 12 -0.5
v 1 13 0.5
v 1 13 -0.5
v 2 7 2.5
v 2 7 1.5
v 2 7 -1.5
v 2 7 -2.5
v 2 8 2.5
v 2 8 1.5
v 2 8 -1.5
v 2 8 -2.5
v 2 9 1.5
v 2 9 0.5
v 2 9 -0.5
v 2 9 -1.5
v 2 10 1.5
v 2 10 0.5
v 2 10 -0.5
v 2 10 -1.5
v 2 11 0.5
v 2 11 -0.5
v 2 12 0.5
v 2 12 -0.5
v 3 6 2.5
v 3 6 1.5
v 3 6 -1.5
v 3 6 -2.5
v 3 7 2.5
v 3 7 1.5
v 3 7 -1.5
v 3 7 -2.5
v 3 8 1.5
v 3 8 0.5
v 3 8 -0.5
v 3 8 -1.5
v 3 9 1.5
v 3 9 0.5
v 3 9 -0.5
v 3 9 -1.5
v 3 10 0.5
v 3 10 -0.5
v 3 11 0.5
v 3 11 -0.5
v 4 0 0.5
v 4 0 -0.5
v 4 2 1.5
v 4 2 0.5
v 4 2 -0.5
v 4 2 -1.5
v 4 3 0.5
v 4 3 -0.5
v 4 4 2.5
v 4 4 1.5
v 4 4 -1.5
v 4 4 -2.5
v 4 6 2.5
v 4 6 1.5
v 4 6 -1.5
v 4 6 -2.5
v 4 7 0.5
v 4 7 -0.5
v 4 8 1.5
v 4 8 0.5
v 4 8 -0.5
v 4 8 -1.5
v 4 10 0.5
v 4 10 -0.5
v -1 8 2.5
v -1 10 2.5
v 0 7 2.5
v 0 8 2.5
v 0 9 2.5
v 0 10 2.5
v 1 6 2.5
v 1 7 2.5
v 1 8 2.5
v 1 9 2.5
v 2 5 2.5
v 2 6 2.5
v 2 7 2.5
v 2 8 2.5
v 3 4 2.5
v 3 5 2.5
v 3 6 2.5
v 3 7 2.5
v 4 4 2.5
v 4 6 2.5
v -3 9 1.5
v -3 10 1.5
v -2 7 1.5
v -2 9 1.5
v -2 10 1.5
v -2 11 1.5
v -1 6 1.5
v -1 7 1.5
v -1 8 1.5
v -1 10 1.5
v -1 11 1.5
v -1 12 1.5
v 0 5 1.5
v 0 6 1.5
v 0 7 1.5
v 0 8 1.5
v 0 9 1.5
v 0 10 1.5
v 0 11 1.5
v 0 12 1.5
v 1 4 1.5
v 1 5 1.5
v 1 6 1.5
v 1 7 1.5
v 1 8 1.5
v 1 9 1.5
v 1 10 1.5
v 1 11 1.5
v 2 3 1.5
v 2 4 1.5
v 2 5 1.5
v 2 6 1.5
v 2 7 1.5
v 2 8 1.5
v 2 9 1.5
v 2 10 1.5
v 3 2 1.5
v 3 3 1.5
v 3 4 1.5
v 3 5 1.5
v 3 6 1.5
v 3 7 1.5
v 3 8 1.5
v 3 9 1.5
v 4 2 1.5
v 4 4 1.5
v 4 6 1.5
v 4 8 1.5
v -4 8 0.5
v -4 11 0.5
v -3 6 0.5
v -3 8 0.5
v -3 9 0.5
v -3 10 0.5
v -3 11 0.5
v -3 12 0.5
v -2 5 0.5
v -2 6 0.5
v -2 7 0.5
v -2 9 0.5
v -2 10 0.5
v -2 11 0.5
v -2 12 0.5
v -2 13 0.5
v -1 4 0.5
v -1 5 0.5
v -1 6 0.5
v -1 7 0.5
v -1 11 0.5
v -1 12 0.5
v 0 3 0.5
v 0 4 0.5
v 0 5 0.5
v 0 6 0.5
v 0 11 0.5
v 0 12 0.5
v 1 2 0.5
v 1 3 0.5
v 1 4 0.5
v 1 5 0.5
v 1 10 0.5
v 1 11 0.5
v 1 12 0.5
v 1 13 0.5
v 2 1 0.5
v 2 2 0.5
v 2 3 0.5
v 2 4 0.5
v 2 9 0.5
v 2 10 0.5
v 2 11 0.5
v 2 12 0.5
v 3 0 0.5
v 3 1 0.5
v 3 2 0.5
v 3 3 0.5
v 3 8 0.5
v 3 9 0.5
v 3 10 0.5
v 3 11 0.5
v 4 0 0.5
v 4 2 0.5
v 4 8 0.5
v 4 10 0.5
v -4 8 -0.5
v -4 11 -0.5
v -3 6 -0.5
v -3 8 -0.5
v -3 9 -0.5
v -3 10 -0.5
v -3 11 -0.5
v -3 12 -0.5
v -2 5 -0.5
v -2 6 -0.5
v -2 7 -0.5
v -2 9 -0.5
v -2 10 -0.5
v -2 11 -0.5
v -2 12 -0.5
v -2 13 -0.5
v -1 4 -0.5
v -1 5 -0.5
v -1 6 -0.5
v -1 7 -0.5
v -1 11 -0.5
v -1 12 -0.5
v 0 3 -0.5
v 0 4 -0.5
v 0 5 -0.5
v 0 6 -0.5
v 0 11 -0.5
v 0 12 -0.5
v 1 2 -0.5
v 1 3 -0.5
v 1 4 -0.5
v 1 5 -0.5
v 1 10 -0.5
v 1 11 -0.5
v 1 12 -0.5
v 1 13 -0.5
v 2 1 -0.5
v 2 2 -0.5
v 2 3 -0.5
v 2 4 -0.5
v 2 9 -0.5
v 2 10 -0.5
v 2 11 -0.5
v 2 12 -0.5
v 3 0 -0.5
v 3 1 -0.5
v 3 2 -0.5
v 3 3 -0.5
v 3 8 -0.5
v 3 9 -0.5
v 3 10 -0.5
v 3 11 -0.5
v 4 0 -0.5
v 4 2 -0.5
v 4 8 -0.5
v 4 10 -0.5
v -3 9 -1.5
v -3 10 -1.5
v -2 7 -1.5
v -2 9 -1.5
v -2 10 -1.5
v -2 11 -1.5
v -1 6 -1.5
v -1 7 -1.5
v -1 8 -1.5
v -1 10 -1.5
v -1 11 -1.5
v -1 12 -1.5
v 0 5 -1.5
v 0 6 -1.5
v 0 7 -1.5
v 0 8 -1.5
v 0 9 -1.5
v 0 10 -1.5
v 0 11 -1.5
v 0 12 -1.5
v 1 4 -1.5
v 1 5 -1.5
v 1 6 -1.5
v 1 7 -1.5
v 1 8 -1.5
v 1 9 -1.5
v 1 10 -1.5
v 1 11 -1.5
v 2 3 -1.5
v 2 4 -1.5
v 2 5 -1.5
v 2 6 -1.5
v 2 7 -1.5
v 2 8 -1.5
v 2 9 -1.5
v 2 10 -1.5
v 3 2 -1.5
v 3 3 -1.5
v 3 4 -1.5
v 3 5 -1.5
v 3 6 -1.5
v 3 7 -1.5
v 3 8 -1.5
v 3 9 -1.5
v 4 2 -1.5
v 4 4 -1.5
v 4 6 -1.5
v 4 8 -1.5
v -1 8 -2.5
v -1 10 -2.5
v 0 7 -2.5
v 0 8 -2.5
v 0 9 -2.5
v 0 10 -2.5
v 1 6 -2.5
v 1 7 -2.5
v 1 8 -2.5
v 1 9 -2.5
v 2 5 -2.5
v 2 6 -2.5
v 2 7 -2.5
v 2 8 -2.5
v 3 4 -2.5
v 3 5 -2.5
v 3 6 -2.5
v 3 7 -2.5
v 4 4 -2.5
v 4 6 -2.5
v 3 0 0.5
v 4 0 0.5
v 3 0 -0.5
v 4 0 -0.5
v 2 1 0.5
v 3 1 0.5
v 2 1 -0.5
v 3 1 -0.5
v 3 2 1.5
v 4 2 1.5
v 1 2 0.5
v 2 2 0.5
v 3 2 0.5
v 4 2 0.5
v 1 2 -0.5
v 2 2 -0.5
v 3 2 -0.5
v 4 2 -0.5
v 3 2 -1.5
v 4 2 -1.5
v 2 3 1.5
v 3 3 1.5
v 0 3 0.5
v 1 3 0.5
v 2 3 0.5
v 3 3 0.5
v 0 3 -0.5
v 1 3 -0.5
v 2 3 -0.5
v 3 3 -0.5
v 2 3 -1.5
v 3 3 -1.5
v 3 4 2.5
v 4 4 2.5
v 1 4 1.5
v 2 4 1.5
v 3 4 1.5
v 4 4 1.5
v -1 4 0.5
v 0 4 0.5
v 1 4 0.5
v 2 4 0.5
v -1 4 -0.5
v 0 4 -0.5
v 1 4 -0.5
v 2 4 -0.5
v 1 4 -1.5
v 2 4 -1.5
v 3 4 -1.5
v 4 4 -1.5
v 3 4 -2.5
v 4 4 -2.5
v 2 5 2.5
v 3 5 2.5
v 0 5 1.5
v 1 5 1.5
v 2 5 1.5
v 3 5 1.5
v -2 5 0.5
v -1 5 0.5
v 0 5 0.5
v 1 5 0.5
v -2 5 -0.5
v -1 5 -0.5
v 0 5 -0.5
v 1 5 -0.5
v 0 5 -1.5
v 1 5 -1.5
v 2 5 -1.5
v 3 5 -1.5
v 2 5 -2.5
v 3 5 -2.5
v 1 6 2.5
v 2 6 2.5
v -1 6 1.5
v 0 6 1.5
v 1 6 1.5
v 2 6 1.5
v -3 6 0.5
v -2 6 0.5
v -1 6 0.5
v 0 6 0.5
v -3 6 -0.5
v -2 6 -0.5
v -1 6 -0.5
v 0 6 -0.5
v -1 6 -1.5
v 0 6 -1.5
v 1 6 -1.5
v 2 6 -1.5
v 1 6 -2.5
v 2 6 -2.5
v 0 7 2.5
v 1 7 2.5
v -2 7 1.5
v -1 7 1.5
v 0 7 1.5
v 1 7 1.5
v -2 7 0.5
v -1 7 0.5
v -2 7 -0.5
v -1 7 -0.5
v -2 7 -1.5
v -1 7 -1.5
v 0 7 -1.5
v 1 7 -1.5
v 0 7 -2.5
v 1 7 -2.5
v -1 8 2.5
v 0 8 2.5
v -1 8 1.5
v 0 8 1.5
v -4 8 0.5
v -3 8 0.5
v -4 8 -0.5
v -3 8 -0.5
v -1 8 -1.5
v 0 8 -1.5
v -1 8 -2.5
v 0 8 -2.5
v -3 9 1.5
v -2 9 1.5
v -3 9 0.5
v -2 9 0.5
v -3 9 -0.5
v -2 9 -0.5
v -3 9 -1.5
v -2 9 -1.5
v 3 6 2.5
v 4 6 2.5
v 3 6 1.5
v 4 6 1.5
v 3 6 -1.5
v 4 6 -1.5
v 3 6 -2.5
v 4 6 -2.5
v 2 7 2.5
v 3 7 2.5
v 2 7 1.5
v 3 7 1.5
v 2 7 -1.5
v 3 7 -1.5
v 2 7 -2.5
v 3 7 -2.5
v 1 8 2.5
v 2 8 2.5
v 1 8 1.5
v 2 8 1.5
v 3 8 1.5
v 4 8 1.5
v 3 8 0.5
v 4 8 0.5
v 3 8 -0.5
v 4 8 -0.5
v 1 8 -1.5
v 2 8 -1.5
v 3 8 -1.5
v 4 8 -1.5
v 1 8 -2.5
v 2 8 -2.5
v 0 9 2.5
v 1 9 2.5
v 0 9 1.5
v 1 9 1.5
v 2 9 1.5
v 3 9 1.5
v 2 9 0.5
v 3 9 0.5
v 2 9 -0.5
v 3 9 -0.5
v 0 9 -1.5
v 1 9 -1.5
v 2 9 -1.5
v 3 9 -1.5
v 0 9 -2.5
v 1 9 -2.5
v -1 10 2.5
v 0 10 2.5
v -3 10 1.5
v -2 10 1.5
v -1 10 1.5
v 0 10 1.5
v 1 10 1.5
v 2 10 1.5
v -3 10 0.5
v -2 10 0.5
v 1 10 0.5
v 2 10 0.5
v 3 10 0.5
v 4 10 0.5
v -3 10 -0.5
v -2 10 -0.5
v 1 10 -0.5
v 2 10 -0.5
v 3 10 -0.5
v 4 10 -0.5
v -3 10 -1.5
v -2 10 -1.5
v -1 10 -1.5
v 0 10 -1.5
v 1 10 -1.5
v 2 10 -1.5
v -1 10 -2.5
v 0 10 -2.5
v -2 11 1.5
v -1 11 1.5
v 0 11 1.5
v 1 11 1.5
v -4 11 0.5
v -3 11 0.5
v -2 11 0.5
v -1 11 0.5
v 0 11 0.5
v 1 11 0.5
v 2 11 0.5
v 3 11 0.5
v -4 11 -0.5
v -3 11 -0.5
v -2 11 -0.5
v -1 11 -0.5
v 0 11 -0.5
v 1 11 -0.5
v 2 11 -0.5
v 3 11 -0.5
v -2 11 -1.5
v -1 11 -1.5
v 0 11 -1.5
v 1 11 -1.5
v -1 12 1.5
v 0 12 1.5
v -3 12 0.5
v -2 12 0.5
v -1 12 0.5
v 0 12 0.5
v 1 12 0.5
v 2 12 0.5
v -3 12 -0.5
v -2 12 -0.5
v -1 12 -0.5
v 0 12 -0.5
v 1 12 -0.5
v 2 12 -0.5
v -1 12 -1.5
v 0 12 -1.5
v -2 13 0.5
v 1 13 0.5
v -2 13 -0.5
v 1 13 -0.5

# faces
f 3/3/1 2/3/1 1/3/1
f 4/3/1 2/3/1 3/3/1
f 7/3/1 6/3/1 5/3/1
f 8/3/1 6/3/1 7/3/1
f 13/1/1 10/1/1 9/1/1
f 14/1/1 10/1/1 13/1/1
f 15/1/1 12/1/1 11/1/1
f 16/1/1 12/1/1 15/1/1
f 19/3/1 18/3/1 17/3/1
f 20/3/1 18/3/1 19/3/1
f 23/3/1 22/3/1 21/3/1
f 24/3/1 22/3/1 23/3/1
f 29/1/1 26/1/1 25/1/1
f 30/1/1 26/1/1 29/1/1
f 31/1/1 28/1/1 27/1/1
f 32/1/1 28/1/1 31/1/1
f 37/1/1 34/1/1 33/1/1
f 38/1/1 34/1/1 37/1/1
f 39/1/1 36/1/1 35/1/1
f 40/1/1 36/1/1 39/1/1
f 43/3/1 42/3/1 41/3/1
f 44/3/1 42/3/1 43/3/1
f 47/3/1 46/3/1 45/3/1
f 48/3/1 46/3/1 47/3/1
f 53/1/1 50/1/1 49/1/1
f 54/1/1 50/1/1 53/1/1
f 55/1/1 52/1/1 51/1/1
f 56/1/1 52/1/1 55/1/1
f 61/4/1 58/4/1 57/4/1
f 62/4/1 58/4/1 61/4/1
f 63/4/1 60/4/1 59/4/1
f 64/4/1 60/4/1 63/4/1
f 69/1/1 66/1/1 65/1/1
f 70/1/1 66/1/1 69/1/1
f 71/1/1 68/1/1 67/1/1
f 72/1/1 68/1/1 71/1/1
f 75/3/1 74/3/1 73/3/1
f 76/3/1 74/3/1 75/3/1
f 81/1/1 78/1/1 77/1/1
f 82/1/1 78/1/1 81/1/1
f 83/1/1 80/1/1 79/1/1
f 84/1/1 80/1/1 83/1/1
f 89/4/1 86/4/1 85/4/1
f 90/4/1 86/4/1 89/4/1
f 91/4/1 88/4/1 87/4/1
f 92/4/1 88/4/1 91/4/1
f 95/3/1 94/3/1 93/3/1
f 96/3/1 94/3/1 95/3/1
f 101/1/1 98/1/1 97/1/1
f 102/1/1 98/1/1 101/1/1
f 103/1/1 100/1/1 99/1/1
f 104/1/1 100/1/1 103/1/1
f 109/4/1 106/4/1 105/4/1
f 110/4/1 106/4/1 109/4/1
f 111/4/1 108/4/1 107/4/1
f 112/4/1 108/4/1 111/4/1
f 115/3/1 114/3/1 113/3/1
f 116/3/1 114/3/1 115/3/1
f 121/1/1 118/1/1 117/1/1
f 122/1/1 118/1/1 121/1/1
f 123/1/1 120/1/1 119/1/1
f 124/1/1 120/1/1 123/1/1
f 129/4/1 126/4/1 125/4/1
f 130/4/1 126/4/1 129/4/1
f 131/4/1 128/4/1 127/4/1
f 132/4/1 128/4/1 131/4/1
f 135/3/1 134/3/1 133/3/1
f 136/3/1 134/3/1 135/3/1
f 141/1/1 138/1/1 137/1/1
f 142/1/1 138/1/1 141/1/1
f 143/1/1 140/1/1 139/1/1
f 144/1/1 140/1/1 143/1/1
f 149/4/1 146/4/1 145/4/1
f 150/4/1 146/4/1 149/4/1
f 151/4/1 148/4/1 147/4/1
f 152/4/1 148/4/1 151/4/1
f 153/4/2 154/4/2 157/4/2
f 157/4/2 154/4/2 158/4/2
f 155/4/2 156/4/2 159/4/2
f 159/4/2 156/4/2 160/4/2
f 161/1/2 162/1/2 165/1/2
f 165/1/2 162/1/2 166/1/2
f 163/1/2 164/1/2 167/1/2
f 167/1/2 164/1/2 168/1/2
f 169/4/2 170/4/2 173/4/2
f 173/4/2 170/4/2 174/4/2
f 171/4/2 172/4/2 175/4/2
f 175/4/2 172/4/2 176/4/2
f 177/1/2 178/1/2 181/1/2
f 181/1/2 178/1/2 182/1/2
f 179/1/2 180/1/2 183/1/2
f 183/1/2 180/1/2 184/1/2
f 185/3/2 186/3/2 187/3/2
f 187/3/2 186/3/2 188/3/2
f 189/4/2 190/4/2 193/4/2
f 193/4/2 190/4/2 194/4/2
f 191/4/2 192/4/2 195/4/2
f 195/4/2 192/4/2 196/4/2
f 197/1/2 198/1/2 201/1/2
f 201/1/2 198/1/2 202/1/2
f 199/1/2 200/1/2 203/1/2
f 203/1/2 200/1/2 204/1/2
f 205/3/2 206/3/2 207/3/2
f 207/3/2 206/3/2 208/3/2
f 209/4/2 210/4/2 213/4/2
f 213/4/2 210/4/2 214/4/2
f 211/4/2 212/4/2 215/4/2
f 215/4/2 212/4/2 216/4/2
f 217/1/2 218/1/2 221/1/2
f 221/1/2 218/1/2 222/1/2
f 219/1/2 220/1/2 223/1/2
f 223/1/2 220/1/2 224/1/2
f 225/3/2 226/3/2 227/3/2
f 227/3/2 226/3/2 228/3/2
f 229/3/2 230/3/2 232/3/2
f 232/3/2 230/3/2 233/3/2
f 231/1/2 232/1/2 235/1/2
f 232/2/2 233/2/2 235/2/2
f 233/1/2 234/1/2 236/1/2
f 235/2/2 233/2/2 236/2/2
f 231/1/2 235/1/2 238/1/2
f 236/1/2 234/1/2 239/1/2
f 237/4/2 238/4/2 241/4/2
f 238/1/2 235/1/2 242/1/2
f 241/4/2 238/4/2 242/4/2
f 239/4/2 240/4/2 243/4/2
f 236/1/2 239/1/2 243/1/2
f 243/4/2 240/4/2 244/4/2
f 242/1/2 235/1/2 245/1/2
f 235/3/2 236/3/2 245/3/2
f 236/1/2 243/1/2 246/1/2
f 245/3/2 236/3/2 246/3/2
f 242/1/2 245/1/2 247/1/2
f 245/2/2 246/2/2 248/2/2
f 247/1/2 245/1/2 248/1/2
f 246/1/2 243/1/2 249/1/2
f 248/2/2 246/2/2 249/2/2
f 249/1/2 243/1/2 250/1/2
f 248/3/2 249/3/2 251/3/2
f 251/3/2 249/3/2 252/3/2
f 256/4/3 254/4/3 253/4/3
f 257/4/3 254/4/3 256/4/3
f 258/4/3 254/4/3 257/4/3
f 260/4/3 256/4/3 255/4/3
f 260/4/3 257/4/3 256/4/3
f 261/4/3 257/4/3 260/4/3
f 262/4/3 257/4/3 261/4/3
f 264/4/3 260/4/3 259/4/3
f 264/4/3 261/4/3 260/4/3
f 265/4/3 261/4/3 264/4/3
f 266/4/3 261/4/3 265/4/3
f 268/4/3 264/4/3 263/4/3
f 268/4/3 265/4/3 264/4/3
f 269/4/3 265/4/3 268/4/3
f 270/4/3 265/4/3 269/4/3
f 271/4/3 268/4/3 267/4/3
f 271/4/3 269/4/3 268/4/3
f 272/4/3 269/4/3 271/4/3
f 276/1/3 274/1/3 273/1/3
f 277/1/3 274/1/3 276/1/3
f 280/1/3 276/1/3 275/1/3
f 280/1/3 278/1/3 277/1/3
f 280/1/3 277/1/3 276/1/3
f 281/1/3 278/1/3 280/1/3
f 282/1/3 278/1/3 281/1/3
f 283/1/3 278/1/3 282/1/3
f 286/1/3 280/1/3 279/1/3
f 286/1/3 281/1/3 280/1/3
f 287/1/3 281/1/3 286/1/3
f 288/1/3 281/1/3 287/1/3
f 290/1/3 283/1/3 282/1/3
f 290/1/3 284/1/3 283/1/3
f 291/1/3 284/1/3 290/1/3
f 292/1/3 284/1/3 291/1/3
f 294/1/3 287/1/3 286/1/3
f 294/1/3 286/1/3 285/1/3
f 295/1/3 287/1/3 294/1/3
f 296/1/3 287/1/3 295/1/3
f 298/1/3 291/1/3 290/1/3
f 298/1/3 290/1/3 289/1/3
f 299/1/3 291/1/3 298/1/3
f 300/1/3 291/1/3 299/1/3
f 302/1/3 295/1/3 294/1/3
f 302/1/3 294/1/3 293/1/3
f 303/1/3 295/1/3 302/1/3
f 304/1/3 295/1/3 303/1/3
f 306/1/3 299/1/3 298/1/3
f 306/1/3 298/1/3 297/1/3
f 307/1/3 299/1/3 306/1/3
f 308/1/3 299/1/3 307/1/3
f 310/1/3 303/1/3 302/1/3
f 310/1/3 302/1/3 301/1/3
f 311/1/3 303/1/3 310/1/3
f 312/1/3 303/1/3 311/1/3
f 314/1/3 307/1/3 306/1/3
f 314/1/3 306/1/3 305/1/3
f 315/1/3 307/1/3 314/1/3
f 316/1/3 307/1/3 315/1/3
f 317/1/3 311/1/3 310/1/3
f 317/1/3 310/1/3 309/1/3
f 318/1/3 311/1/3 317/1/3
f 319/1/3 315/1/3 314/1/3
f 319/1/3 314/1/3 313/1/3
f 320/1/3 315/1/3 319/1/3
f 324/3/3 322/3/3 321/3/3
f 325/3/3 322/3/3 324/3/3
f 326/3/3 322/3/3 325/3/3
f 327/3/3 322/3/3 326/3/3
f 330/3/3 324/3/3 323/3/3
f 330/3/3 325/3/3 324/3/3
f 331/3/3 325/3/3 330/3/3
f 332/3/3 325/3/3 331/3/3
f 333/3/3 327/3/3 326/3/3
f 333/3/3 328/3/3 327/3/3
f 334/3/3 328/3/3 333/3/3
f 335/3/3 328/3/3 334/3/3
f 338/3/3 331/3/3 330/3/3
f 338/3/3 330/3/3 329/3/3
f 339/3/3 331/3/3 338/3/3
f 340/3/3 331/3/3 339/3/3
f 341/3/3 336/3/3 335/3/3
f 341/3/3 335/3/3 334/3/3
f 342/3/3 336/3/3 341/3/3
f 344/3/3 339/3/3 338/3/3
f 344/3/3 338/3/3 337/3/3
f 345/3/3 339/3/3 344/3/3
f 346/3/3 339/3/3 345/3/3
f 348/3/3 336/3/3 342/3/3
f 350/3/3 344/3/3 343/3/3
f 350/3/3 345/3/3 344/3/3
f 351/3/3 345/3/3 350/3/3
f 352/3/3 345/3/3 351/3/3
f 354/3/3 348/3/3 347/3/3
f 355/3/3 336/3/3 348/3/3
f 355/3/3 348/3/3 354/3/3
f 356/3/3 336/3/3 355/3/3
f 358/3/3 350/3/3 349/3/3
f 358/3/3 351/3/3 350/3/3
f 359/3/3 351/3/3 358/3/3
f 360/3/3 351/3/3 359/3/3
f 362/3/3 354/3/3 353/3/3
f 362/3/3 355/3/3 354/3/3
f 363/3/3 355/3/3 362/3/3
f 364/3/3 355/3/3 363/3/3
f 366/3/3 359/3/3 358/3/3
f 366/3/3 358/3/3 357/3/3
f 367/3/3 359/3/3 366/3/3
f 368/3/3 359/3/3 367/3/3
f 370/3/3 363/3/3 362/3/3
f 370/3/3 362/3/3 361/3/3
f 371/3/3 363/3/3 370/3/3
f 372/3/3 363/3/3 371/3/3
f 373/3/3 367/3/3 366/3/3
f 373/3/3 366/3/3 365/3/3
f 374/3/3 367/3/3 373/3/3
f 375/3/3 371/3/3 370/3/3
f 375/3/3 370/3/3 369/3/3
f 376/3/3 371/3/3 375/3/3
f 377/3/4 378/3/4 380/3/4
f 380/3/4 378/3/4 381/3/4
f 381/3/4 378/3/4 382/3/4
f 382/3/4 378/3/4 383/3/4
f 379/3/4 380/3/4 386/3/4
f 380/3/4 381/3/4 386/3/4
f 386/3/4 381/3/4 387/3/4
f 387/3/4 381/3/4 388/3/4
f 382/3/4 383/3/4 389/3/4
f 383/3/4 384/3/4 389/3/4
f 389/3/4 384/3/4 390/3/4
f 390/3/4 384/3/4 391/3/4
f 386/3/4 387/3/4 394/3/4
f 385/3/4 386/3/4 394/3/4
f 394/3/4 387/3/4 395/3/4
f 395/3/4 387/3/4 396/3/4
f 391/3/4 392/3/4 397/3/4
f 390/3/4 391/3/4 397/3/4
f 397/3/4 392/3/4 398/3/4
f 394/3/4 395/3/4 400/3/4
f 393/3/4 394/3/4 400/3/4
f 400/3/4 395/3/4 401/3/4
f 401/3/4 395/3/4 402/3/4
f 398/3/4 392/3/4 404/3/4
f 399/3/4 400/3/4 406/3/4
f 400/3/4 401/3/4 406/3/4
f 406/3/4 401/3/4 407/3/4
f 407/3/4 401/3/4 408/3/4
f 403/3/4 404/3/4 410/3/4
f 404/3/4 392/3/4 411/3/4
f 410/3/4 404/3/4 411/3/4
f 411/3/4 392/3/4 412/3/4
f 405/3/4 406/3/4 414/3/4
f 406/3/4 407/3/4 414/3/4
f 414/3/4 407/3/4 415/3/4
f 415/3/4 407/3/4 416/3/4
f 409/3/4 410/3/4 418/3/4
f 410/3/4 411/3/4 418/3/4
f 418/3/4 411/3/4 419/3/4
f 419/3/4 411/3/4 420/3/4
f 414/3/4 415/3/4 422/3/4
f 413/3/4 414/3/4 422/3/4
f 422/3/4 415/3/4 423/3/4
f 423/3/4 415/3/4 424/3/4
f 418/3/4 419/3/4 426/3/4
f 417/3/4 418/3/4 426/3/4
f 426/3/4 419/3/4 427/3/4
f 427/3/4 419/3/4 428/3/4
f 422/3/4 423/3/4 429/3/4
f 421/3/4 422/3/4 429/3/4
f 429/3/4 423/3/4 430/3/4
f 426/3/4 427/3/4 431/3/4
f 425/3/4 426/3/4 431/3/4
f 431/3/4 427/3/4 432/3/4
f 433/1/4 434/1/4 436/1/4
f 436/1/4 434/1/4 437/1/4
f 435/1/4 436/1/4 440/1/4
f 437/1/4 438/1/4 440/1/4
f 436/1/4 437/1/4 440/1/4
f 440/1/4 438/1/4 441/1/4
f 441/1/4 438/1/4 442/1/4
f 442/1/4 438/1/4 443/1/4
f 439/1/4 440/1/4 446/1/4
f 440/1/4 441/1/4 446/1/4
f 446/1/4 441/1/4 447/1/4
f 447/1/4 441/1/4 448/1/4
f 442/1/4 443/1/4 450/1/4
f 443/1/4 444/1/4 450/1/4
f 450/1/4 444/1/4 451/1/4
f 451/1/4 444/1/4 452/1/4
f 446/1/4 447/1/4 454/1/4
f 445/1/4 446/1/4 454/1/4
f 454/1/4 447/1/4 455/1/4
f 455/1/4 447/1/4 456/1/4
f 450/1/4 451/1/4 458/1/4
f 449/1/4 450/1/4 458/1/4
f 458/1/4 451/1/4 459/1/4
f 459/1/4 451/1/4 460/1/4
f 454/1/4 455/1/4 462/1/4
f 453/1/4 454/1/4 462/1/4
f 462/1/4 455/1/4 463/1/4
f 463/1/4 455/1/4 464/1/4
f 458/1/4 459/1/4 466/1/4
f 457/1/4 458/1/4 466/1/4
f 466/1/4 459/1/4 467/1/4
f 467/1/4 459/1/4 468/1/4
f 462/1/4 463/1/4 470/1/4
f 461/1/4 462/1/4 470/1/4
f 470/1/4 463/1/4 471/1/4
f 471/1/4 463/1/4 472/1/4
f 466/1/4 467/1/4 474/1/4
f 465/1/4 466/1/4 474/1/4
f 474/1/4 467/1/4 475/1/4
f 475/1/4 467/1/4 476/1/4
f 470/1/4 471/1/4 477/1/4
f 469/1/4 470/1/4 477/1/4
f 477/1/4 471/1/4 478/1/4
f 474/1/4 475/1/4 479/1/4
f 473/1/4 474/1/4 479/1/4
f 479/1/4 475/1/4 480/1/4
f 481/4/4 482/4/4 484/4/4
f 484/4/4 482/4/4 485/4/4
f 485/4/4 482/4/4 486/4/4
f 483/4/4 484/4/4 488/4/4
f 484/4/4 485/4/4 488/4/4
f 488/4/4 485/4/4 489/4/4
f 489/4/4 485/4/4 490/4/4
f 487/4/4 488/4/4 492/4/4
f 488/4/4 489/4/4 492/4/4
f 492/4/4 489/4/4 493/4/4
f 493/4/4 489/4/4 494/4/4
f 491/4/4 492/4/4 496/4/4
f 492/4/4 493/4/4 496/4/4
f 496/4/4 493/4/4 497/4/4
f 497/4/4 493/4/4 498/4/4
f 495/4/4 496/4/4 499/4/4
f 496/4/4 497/4/4 499/4/4
f 499/4/4 497/4/4 500/4/4
f 503/3/5 502/3/5 501/3/5
f 504/3/5 502/3/5 503/3/5
f 507/3/5 506/3/5 505/3/5
f 508/3/5 506/3/5 507/3/5
f 513/1/5 510/1/5 509/1/5
f 514/1/5 510/1/5 513/1/5
f 515/3/5 512/3/5 511/3/5
f 516/3/5 512/3/5 515/3/5
f 519/1/5 518/1/5 517/1/5
f 520/1/5 518/1/5 519/1/5
f 525/1/5 522/1/5 521/1/5
f 526/1/5 522/1/5 525/1/5
f 527/3/5 524/3/5 523/3/5
f 528/3/5 524/3/5 527/3/5
f 531/1/5 530/1/5 529/1/5
f 532/1/5 530/1/5 531/1/5
f 537/4/5 534/4/5 533/4/5
f 538/4/5 534/4/5 537/4/5
f 541/1/5 536/1/5 535/1/5
f 542/1/5 536/1/5 541/1/5
f 543/3/5 540/3/5 539/3/5
f 544/3/5 540/3/5 543/3/5
f 547/1/5 546/1/5 545/1/5
f 548/1/5 546/1/5 547/1/5
f 551/4/5 550/4/5 549/4/5
f 552/4/5 550/4/5 551/4/5
f 557/4/5 554/4/5 553/4/5
f 558/4/5 554/4/5 557/4/5
f 561/1/5 556/1/5 555/1/5
f 562/1/5 556/1/5 561/1/5
f 563/3/5 560/3/5 559/3/5
f 564/3/5 560/3/5 563/3/5
f 567/1/5 566/1/5 565/1/5
f 568/1/5 566/1/5 567/1/5
f 571/4/5 570/4/5 569/4/5
f 572/4/5 570/4/5 571/4/5
f 577/4/5 574/4/5 573/4/5
f 578/4/5 574/4/5 577/4/5
f 581/1/5 576/1/5 575/1/5
f 582/1/5 576/1/5 581/1/5
f 583/3/5 580/3/5 579/3/5
f 584/3/5 580/3/5 583/3/5
f 587/1/5 586/1/5 585/1/5
f 588/1/5 586/1/5 587/1/5
f 591/4/5 590/4/5 589/4/5
f 592/4/5 590/4/5 591/4/5
f 597/4/5 594/4/5 593/4/5
f 598/4/5 594/4/5 597/4/5
f 599/1/5 596/1/5 595/1/5
f 600/1/5 596/1/5 599/1/5
f 603/1/5 602/1/5 601/1/5
f 604/1/5 602/1/5 603/1/5
f 607/4/5 606/4/5 605/4/5
f 608/4/5 606/4/5 607/4/5
f 611/4/5 610/4/5 609/4/5
f 612/4/5 610/4/5 611/4/5
f 615/3/5 614/3/5 613/3/5
f 616/3/5 614/3/5 615/3/5
f 619/4/5 618/4/5 617/4/5
f 620/4/5 618/4/5 619/4/5
f 623/1/5 622/1/5 621/1/5
f 624/1/5 622/1/5 623/1/5
f 627/1/5 626/1/5 625/1/5
f 628/1/5 626/1/5 627/1/5
f 629/4/6 630/4/6 631/4/6
f 631/4/6 630/4/6 632/4/6
f 633/4/6 634/4/6 635/4/6
f 635/4/6 634/4/6 636/4/6
f 637/4/6 638/4/6 639/4/6
f 639/4/6 638/4/6 640/4/6
f 641/4/6 642/4/6 643/4/6
f 643/4/6 642/4/6 644/4/6
f 645/4/6 646/4/6 647/4/6
f 647/4/6 646/4/6 648/4/6
f 649/1/6 650/1/6 651/1/6
f 651/1/6 650/1/6 652/1/6
f 653/1/6 654/1/6 657/1/6
f 657/1/6 654/1/6 658/1/6
f 655/4/6 656/4/6 659/4/6
f 659/4/6 656/4/6 660/4/6
f 661/4/6 662/4/6 663/4/6
f 663/4/6 662/4/6 664/4/6
f 665/1/6 666/1/6 667/1/6
f 667/1/6 666/1/6 668/1/6
f 669/1/6 670/1/6 673/1/6
f 673/1/6 670/1/6 674/1/6
f 671/4/6 672/4/6 675/4/6
f 675/4/6 672/4/6 676/4/6
f 677/4/6 678/4/6 681/4/6
f 681/4/6 678/4/6 682/4/6
f 679/1/6 680/1/6 685/1/6
f 685/1/6 680/1/6 686/1/6
f 683/1/6 684/1/6 687/1/6
f 687/1/6 684/1/6 688/1/6
f 689/3/6 690/3/6 695/3/6
f 695/3/6 690/3/6 696/3/6
f 691/1/6 692/1/6 697/1/6
f 697/1/6 692/1/6 698/1/6
f 693/1/6 694/1/6 701/1/6
f 701/1/6 694/1/6 702/1/6
f 699/4/6 700/4/6 703/4/6
f 703/4/6 700/4/6 704/4/6
f 705/1/6 706/1/6 711/1/6
f 711/1/6 706/1/6 712/1/6
f 707/1/6 708/1/6 713/1/6
f 713/1/6 708/1/6 714/1/6
f 709/3/6 710/3/6 717/3/6
f 717/3/6 710/3/6 718/3/6
f 715/3/6 716/3/6 723/3/6
f 723/3/6 716/3/6 724/3/6
f 719/1/6 720/1/6 725/1/6
f 725/1/6 720/1/6 726/1/6
f 721/1/6 722/1/6 727/1/6
f 727/1/6 722/1/6 728/1/6
f 729/1/6 730/1/6 733/1/6
f 733/1/6 730/1/6 734/1/6
f 731/3/6 732/3/6 737/3/6
f 737/3/6 732/3/6 738/3/6
f 735/3/6 736/3/6 741/3/6
f 741/3/6 736/3/6 742/3/6
f 739/1/6 740/1/6 743/1/6
f 743/1/6 740/1/6 744/1/6
f 745/3/6 746/3/6 747/3/6
f 747/3/6 746/3/6 748/3/6
