# MagicaVoxel @ Ephtracy

# group
g paw

# material
mtllib paw.mtl
usemtl palette

# normals
vn -1 0 0
vn 1 0 0
vn 0 0 1
vn 0 0 -1
vn 0 -1 0
vn 0 1 0

# texcoords
vt 0.0449219 0.5
vt 0.228516 0.5
vt 0.232422 0.5
vt 0.830078 0.5

# verts
v -6 5 -0
v -6 5 -1
v -6 7 -0
v -6 7 -1
v -5 4 -0
v -5 4 -1
v -5 5 -0
v -5 5 -1
v -5 7 -0
v -5 7 -1
v -5 8 -0
v -5 8 -1
v -4 2 1
v -4 2 -0
v -4 4 1
v -4 4 -0
v -3 1 1
v -3 1 -0
v -3 2 1
v -3 2 -0
v -3 3 -0
v -3 3 -1
v -3 4 1
v -3 4 -0
v -3 4 -1
v -3 5 1
v -3 5 -0
v -2 2 -0
v -2 2 -1
v -2 3 -0
v -2 3 -1
v -2 7 -0
v -2 7 -1
v -2 8 -0
v -2 8 -1
v -1 0 1
v -1 0 -0
v -1 1 1
v -1 1 -0
v -1 8 -0
v -1 8 -1
v -1 9 -0
v -1 9 -1
v 1 4 1
v 1 4 -0
v 1 5 1
v 1 5 -0
v 3 7 -0
v 3 7 -1
v 3 8 -0
v 3 8 -1
v -3 7 -0
v -3 7 -1
v -3 8 -0
v -3 8 -1
v -1 4 1
v -1 4 -0
v -1 5 1
v -1 5 -0
v 1 0 1
v 1 0 -0
v 1 1 1
v 1 1 -0
v 1 8 -0
v 1 8 -1
v 1 9 -0
v 1 9 -1
v 2 2 -0
v 2 2 -1
v 2 3 -0
v 2 3 -1
v 2 7 -0
v 2 7 -1
v 2 8 -0
v 2 8 -1
v 3 1 1
v 3 1 -0
v 3 2 1
v 3 2 -0
v 3 3 -0
v 3 3 -1
v 3 4 1
v 3 4 -0
v 3 4 -1
v 3 5 1
v 3 5 -0
v 4 2 1
v 4 2 -0
v 4 4 1
v 4 4 -0
v 5 4 -0
v 5 4 -1
v 5 5 -0
v 5 5 -1
v 5 7 -0
v 5 7 -1
v 5 8 -0
v 5 8 -1
v 6 5 -0
v 6 5 -1
v 6 7 -0
v 6 7 -1
v -4 2 1
v -4 4 1
v -3 1 1
v -3 2 1
v -3 4 1
v -3 5 1
v -1 0 1
v -1 1 1
v -1 4 1
v -1 5 1
v 1 0 1
v 1 1 1
v 1 4 1
v 1 5 1
v 3 1 1
v 3 2 1
v 3 4 1
v 3 5 1
v 4 2 1
v 4 4 1
v -6 5 -0
v -6 7 -0
v -5 4 -0
v -5 5 -0
v -5 7 -0
v -5 8 -0
v -4 4 -0
v -3 4 -0
v -3 5 -0
v -3 7 -0
v -3 8 -0
v -2 7 -0
v -2 8 -0
v -1 4 -0
v -1 5 -0
v -1 8 -0
v -1 9 -0
v 1 4 -0
v 1 5 -0
v 1 8 -0
v 1 9 -0
v 2 7 -0
v 2 8 -0
v 3 4 -0
v 3 5 -0
v 3 7 -0
v 3 8 -0
v 4 4 -0
v 5 4 -0
v 5 5 -0
v 5 7 -0
v 5 8 -0
v 6 5 -0
v 6 7 -0
v -4 2 -0
v -4 4 -0
v -3 1 -0
v -3 2 -0
v -3 3 -0
v -3 4 -0
v -2 2 -0
v -2 3 -0
v -1 0 -0
v -1 1 -0
v 1 0 -0
v 1 1 -0
v 2 2 -0
v 2 3 -0
v 3 1 -0
v 3 2 -0
v 3 3 -0
v 3 4 -0
v 4 2 -0
v 4 4 -0
v -6 5 -1
v -6 7 -1
v -5 4 -1
v -5 5 -1
v -5 7 -1
v -5 8 -1
v -3 3 -1
v -3 4 -1
v -3 5 -1
v -3 7 -1
v -3 8 -1
v -2 2 -1
v -2 3 -1
v -2 7 -1
v -2 8 -1
v -1 4 -1
v -1 5 -1
v -1 8 -1
v -1 9 -1
v 1 4 -1
v 1 5 -1
v 1 8 -1
v 1 9 -1
v 2 2 -1
v 2 3 -1
v 2 7 -1
v 2 8 -1
v 3 3 -1
v 3 4 -1
v 3 5 -1
v 3 7 -1
v 3 8 -1
v 5 4 -1
v 5 5 -1
v 5 7 -1
v 5 8 -1
v 6 5 -1
v 6 7 -1
v -1 0 1
v 1 0 1
v -1 0 -0
v 1 0 -0
v -3 1 1
v -1 1 1
v 1 1 1
v 3 1 1
v -3 1 -0
v -1 1 -0
v 1 1 -0
v 3 1 -0
v -4 2 1
v -3 2 1
v 3 2 1
v 4 2 1
v -4 2 -0
v -3 2 -0
v -2 2 -0
v 2 2 -0
v 3 2 -0
v 4 2 -0
v -2 2 -1
v 2 2 -1
v -3 3 -0
v -2 3 -0
v 2 3 -0
v 3 3 -0
v -3 3 -1
v -2 3 -1
v 2 3 -1
v 3 3 -1
v -5 4 -0
v -4 4 -0
v -3 4 -0
v 3 4 -0
v 4 4 -0
v 5 4 -0
v -5 4 -1
v -3 4 -1
v 3 4 -1
v 5 4 -1
v -6 5 -0
v -5 5 -0
v 5 5 -0
v 6 5 -0
v -6 5 -1
v -5 5 -1
v 5 5 -1
v 6 5 -1
v -4 4 1
v -3 4 1
v -1 4 1
v 1 4 1
v 3 4 1
v 4 4 1
v -4 4 -0
v -3 4 -0
v -1 4 -0
v 1 4 -0
v 3 4 -0
v 4 4 -0
v -3 5 1
v -1 5 1
v 1 5 1
v 3 5 1
v -3 5 -0
v -1 5 -0
v 1 5 -0
v 3 5 -0
v -6 7 -0
v -5 7 -0
v -3 7 -0
v -2 7 -0
v 2 7 -0
v 3 7 -0
v 5 7 -0
v 6 7 -0
v -6 7 -1
v -5 7 -1
v -3 7 -1
v -2 7 -1
v 2 7 -1
v 3 7 -1
v 5 7 -1
v 6 7 -1
v -5 8 -0
v -3 8 -0
v -2 8 -0
v -1 8 -0
v 1 8 -0
v 2 8 -0
v 3 8 -0
v 5 8 -0
v -5 8 -1
v -3 8 -1
v -2 8 -1
v -1 8 -1
v 1 8 -1
v 2 8 -1
v 3 8 -1
v 5 8 -1
v -1 9 -0
v 1 9 -0
v -1 9 -1
v 1 9 -1

# faces
f 3/3/1 2/3/1 1/3/1
f 4/3/1 2/3/1 3/3/1
f 7/3/1 6/3/1 5/3/1
f 8/3/1 6/3/1 7/3/1
f 11/1/1 10/1/1 9/1/1
f 12/1/1 10/1/1 11/1/1
f 15/2/1 14/2/1 13/2/1
f 16/2/1 14/2/1 15/2/1
f 19/2/1 18/2/1 17/2/1
f 20/2/1 18/2/1 19/2/1
f 24/4/1 22/4/1 21/4/1
f 25/4/1 22/4/1 24/4/1
f 26/2/1 24/2/1 23/2/1
f 27/2/1 24/2/1 26/2/1
f 30/4/1 29/4/1 28/4/1
f 31/4/1 29/4/1 30/4/1
f 34/3/1 33/3/1 32/3/1
f 35/3/1 33/3/1 34/3/1
f 38/2/1 37/2/1 36/2/1
f 39/2/1 37/2/1 38/2/1
f 42/1/1 41/1/1 40/1/1
f 43/1/1 41/1/1 42/1/1
f 46/2/1 45/2/1 44/2/1
f 47/2/1 45/2/1 46/2/1
f 50/1/1 49/1/1 48/1/1
f 51/1/1 49/1/1 50/1/1
f 52/1/2 53/1/2 54/1/2
f 54/1/2 53/1/2 55/1/2
f 56/2/2 57/2/2 58/2/2
f 58/2/2 57/2/2 59/2/2
f 60/2/2 61/2/2 62/2/2
f 62/2/2 61/2/2 63/2/2
f 64/1/2 65/1/2 66/1/2
f 66/1/2 65/1/2 67/1/2
f 68/4/2 69/4/2 70/4/2
f 70/4/2 69/4/2 71/4/2
f 72/3/2 73/3/2 74/3/2
f 74/3/2 73/3/2 75/3/2
f 76/2/2 77/2/2 78/2/2
f 78/2/2 77/2/2 79/2/2
f 80/4/2 81/4/2 83/4/2
f 83/4/2 81/4/2 84/4/2
f 82/2/2 83/2/2 85/2/2
f 85/2/2 83/2/2 86/2/2
f 87/2/2 88/2/2 89/2/2
f 89/2/2 88/2/2 90/2/2
f 91/3/2 92/3/2 93/3/2
f 93/3/2 92/3/2 94/3/2
f 95/1/2 96/1/2 97/1/2
f 97/1/2 96/1/2 98/1/2
f 99/3/2 100/3/2 101/3/2
f 101/3/2 100/3/2 102/3/2
f 106/2/3 104/2/3 103/2/3
f 107/2/3 104/2/3 106/2/3
f 110/2/3 106/2/3 105/2/3
f 110/2/3 108/2/3 107/2/3
f 110/2/3 107/2/3 106/2/3
f 111/2/3 108/2/3 110/2/3
f 112/2/3 108/2/3 111/2/3
f 113/2/3 110/2/3 109/2/3
f 113/2/3 111/2/3 110/2/3
f 114/2/3 111/2/3 113/2/3
f 115/2/3 111/2/3 114/2/3
f 117/2/3 116/2/3 115/2/3
f 117/2/3 115/2/3 114/2/3
f 118/2/3 116/2/3 117/2/3
f 119/2/3 116/2/3 118/2/3
f 120/2/3 116/2/3 119/2/3
f 121/2/3 119/2/3 118/2/3
f 122/2/3 119/2/3 121/2/3
f 126/3/3 124/3/3 123/3/3
f 127/3/3 124/3/3 126/3/3
f 129/3/3 126/3/3 125/3/3
f 129/3/3 127/3/3 126/3/3
f 130/3/3 127/3/3 129/3/3
f 131/3/3 127/3/3 130/3/3
f 132/1/3 128/1/3 127/1/3
f 132/3/3 127/3/3 131/3/3
f 133/1/3 128/1/3 132/1/3
f 134/3/3 132/3/3 131/3/3
f 137/3/3 134/3/3 131/3/3
f 137/3/3 135/3/3 134/3/3
f 138/3/3 135/3/3 137/3/3
f 140/3/3 138/3/3 137/3/3
f 140/3/3 137/3/3 136/3/3
f 141/3/3 138/3/3 140/3/3
f 142/1/3 139/1/3 138/1/3
f 142/3/3 138/3/3 141/3/3
f 143/1/3 139/1/3 142/1/3
f 144/3/3 142/3/3 141/3/3
f 145/3/3 142/3/3 144/3/3
f 147/3/3 144/3/3 141/3/3
f 148/3/3 144/3/3 147/3/3
f 150/3/3 147/3/3 146/3/3
f 150/3/3 148/3/3 147/3/3
f 151/3/3 148/3/3 150/3/3
f 152/3/3 148/3/3 151/3/3
f 153/1/3 149/1/3 148/1/3
f 153/3/3 148/3/3 152/3/3
f 154/1/3 149/1/3 153/1/3
f 155/3/3 153/3/3 152/3/3
f 156/3/3 153/3/3 155/3/3
f 157/2/4 158/2/4 160/2/4
f 160/2/4 158/2/4 161/2/4
f 161/2/4 158/2/4 162/2/4
f 159/2/4 160/2/4 163/2/4
f 160/2/4 161/2/4 163/2/4
f 163/2/4 161/2/4 164/2/4
f 159/2/4 163/2/4 166/2/4
f 165/2/4 166/2/4 167/2/4
f 166/2/4 163/2/4 168/2/4
f 167/2/4 166/2/4 168/2/4
f 168/2/4 163/2/4 169/2/4
f 168/2/4 169/2/4 171/2/4
f 169/2/4 170/2/4 171/2/4
f 171/2/4 170/2/4 172/2/4
f 172/2/4 170/2/4 173/2/4
f 172/2/4 173/2/4 175/2/4
f 173/2/4 174/2/4 175/2/4
f 175/2/4 174/2/4 176/2/4
f 177/3/4 178/3/4 180/3/4
f 180/3/4 178/3/4 181/3/4
f 179/3/4 180/3/4 184/3/4
f 180/3/4 181/3/4 184/3/4
f 184/3/4 181/3/4 185/3/4
f 181/1/4 182/1/4 186/1/4
f 185/3/4 181/3/4 186/3/4
f 186/1/4 182/1/4 187/1/4
f 184/4/4 185/4/4 189/4/4
f 183/4/4 184/4/4 189/4/4
f 185/3/4 186/3/4 190/3/4
f 188/4/4 189/4/4 192/4/4
f 189/4/4 185/4/4 192/4/4
f 190/3/4 191/3/4 193/3/4
f 192/4/4 185/4/4 193/4/4
f 185/3/4 190/3/4 193/3/4
f 193/3/4 191/3/4 194/3/4
f 193/3/4 194/3/4 196/3/4
f 188/4/4 192/4/4 196/4/4
f 192/3/4 193/3/4 196/3/4
f 196/3/4 194/3/4 197/3/4
f 194/1/4 195/1/4 198/1/4
f 197/3/4 194/3/4 198/3/4
f 198/1/4 195/1/4 199/1/4
f 196/4/4 197/4/4 200/4/4
f 188/4/4 196/4/4 200/4/4
f 200/4/4 197/4/4 201/4/4
f 197/3/4 198/3/4 202/3/4
f 202/3/4 198/3/4 203/3/4
f 201/4/4 197/4/4 204/4/4
f 204/4/4 197/4/4 205/4/4
f 197/3/4 202/3/4 206/3/4
f 205/4/4 197/4/4 206/4/4
f 206/3/4 202/3/4 207/3/4
f 205/3/4 206/3/4 209/3/4
f 206/3/4 207/3/4 209/3/4
f 209/3/4 207/3/4 210/3/4
f 207/1/4 208/1/4 211/1/4
f 210/3/4 207/3/4 211/3/4
f 211/1/4 208/1/4 212/1/4
f 210/3/4 211/3/4 213/3/4
f 213/3/4 211/3/4 214/3/4
f 217/2/5 216/2/5 215/2/5
f 218/2/5 216/2/5 217/2/5
f 223/2/5 220/2/5 219/2/5
f 224/2/5 220/2/5 223/2/5
f 225/2/5 222/2/5 221/2/5
f 226/2/5 222/2/5 225/2/5
f 231/2/5 228/2/5 227/2/5
f 232/2/5 228/2/5 231/2/5
f 235/2/5 230/2/5 229/2/5
f 236/2/5 230/2/5 235/2/5
f 237/4/5 234/4/5 233/4/5
f 238/4/5 234/4/5 237/4/5
f 243/4/5 240/4/5 239/4/5
f 244/4/5 240/4/5 243/4/5
f 245/4/5 242/4/5 241/4/5
f 246/4/5 242/4/5 245/4/5
f 253/3/5 248/3/5 247/3/5
f 253/3/5 249/3/5 248/3/5
f 254/3/5 249/3/5 253/3/5
f 255/3/5 252/3/5 251/3/5
f 255/3/5 251/3/5 250/3/5
f 256/3/5 252/3/5 255/3/5
f 261/3/5 258/3/5 257/3/5
f 262/3/5 258/3/5 261/3/5
f 263/3/5 260/3/5 259/3/5
f 264/3/5 260/3/5 263/3/5
f 265/2/6 266/2/6 271/2/6
f 271/2/6 266/2/6 272/2/6
f 267/2/6 268/2/6 273/2/6
f 273/2/6 268/2/6 274/2/6
f 269/2/6 270/2/6 275/2/6
f 275/2/6 270/2/6 276/2/6
f 277/2/6 278/2/6 281/2/6
f 281/2/6 278/2/6 282/2/6
f 279/2/6 280/2/6 283/2/6
f 283/2/6 280/2/6 284/2/6
f 285/3/6 286/3/6 293/3/6
f 293/3/6 286/3/6 294/3/6
f 287/3/6 288/3/6 295/3/6
f 295/3/6 288/3/6 296/3/6
f 289/3/6 290/3/6 297/3/6
f 297/3/6 290/3/6 298/3/6
f 291/3/6 292/3/6 299/3/6
f 299/3/6 292/3/6 300/3/6
f 301/1/6 302/1/6 309/1/6
f 309/1/6 302/1/6 310/1/6
f 303/3/6 304/3/6 311/3/6
f 311/3/6 304/3/6 312/3/6
f 305/3/6 306/3/6 313/3/6
f 313/3/6 306/3/6 314/3/6
f 307/1/6 308/1/6 315/1/6
f 315/1/6 308/1/6 316/1/6
f 317/1/6 318/1/6 319/1/6
f 319/1/6 318/1/6 320/1/6
