# MagicaVoxel @ Ephtracy

# group
g spikes

# material
mtllib spikes.mtl
usemtl palette

# normals
vn -1 0 0
vn 1 0 0
vn 0 0 1
vn 0 0 -1
vn 0 -1 0
vn 0 1 0

# texcoords
vt 0.189453 0.5
vt 0.193359 0.5
vt 0.197266 0.5
vt 0.201172 0.5
vt 0.205078 0.5
vt 0.208984 0.5
vt 0.212891 0.5

# verts
v -4 0 2
v -4 0 1
v -4 1 2
v -4 1 1
v -4 5 1
v -4 5 -0
v -4 6 1
v -4 6 -0
v -4 7 1
v -4 7 -0
v -3 3 1
v -3 3 -0
v -3 4 1
v -3 4 -0
v -3 5 1
v -3 5 -0
v -2 1 1
v -2 1 -0
v -2 3 1
v -2 3 -0
v -1 0 2
v -1 0 1
v -1 0 -0
v -1 1 2
v -1 1 1
v -1 1 -0
v -1 1 -1
v -1 2 -1
v -1 2 -2
v -1 3 -0
v -1 3 -1
v -1 3 -2
v -1 3 -3
v -1 4 -1
v -1 4 -2
v -1 4 -3
v -1 5 -2
v -1 5 -3
v -1 6 -2
v -1 6 -3
v 0 1 3
v 0 1 2
v 0 1 1
v 0 2 4
v 0 2 3
v 0 2 2
v 0 2 1
v 0 3 5
v 0 3 4
v 0 3 3
v 0 3 2
v 0 4 5
v 0 4 4
v 0 4 3
v 0 5 5
v 0 5 4
v 1 2 1
v 1 2 -0
v 1 4 1
v 1 4 -0
v 2 0 -1
v 2 0 -2
v 2 1 -1
v 2 1 -2
v 2 4 1
v 2 4 -0
v 2 5 1
v 2 5 -0
v 2 6 1
v 2 6 -0
v 3 6 1
v 3 6 -0
v 3 7 1
v 3 7 -0
v -3 0 2
v -3 0 1
v -3 1 2
v -3 1 1
v -3 6 1
v -3 6 -0
v -3 7 1
v -3 7 -0
v -2 4 1
v -2 4 -0
v -2 5 1
v -2 5 -0
v -2 6 1
v -2 6 -0
v -1 2 1
v -1 2 -0
v -1 3 -0
v -1 4 1
v -1 4 -0
v 0 1 -0
v 0 1 -1
v 0 2 -0
v 0 2 -1
v 0 2 -2
v 0 3 -0
v 0 3 -1
v 0 3 -2
v 0 3 -3
v 0 4 -1
v 0 4 -2
v 0 4 -3
v 0 5 -2
v 0 5 -3
v 0 6 -2
v 0 6 -3
v 1 0 2
v 1 0 -0
v 1 1 3
v 1 1 2
v 1 1 1
v 1 1 -0
v 1 2 4
v 1 2 3
v 1 2 2
v 1 2 1
v 1 3 5
v 1 3 4
v 1 3 3
v 1 3 2
v 1 4 5
v 1 4 4
v 1 4 3
v 1 5 5
v 1 5 4
v 2 1 1
v 2 1 -0
v 2 3 1
v 2 3 -0
v 3 0 -1
v 3 0 -2
v 3 1 -1
v 3 1 -2
v 3 3 1
v 3 3 -0
v 3 4 1
v 3 4 -0
v 3 5 1
v 3 5 -0
v 4 5 1
v 4 5 -0
v 4 6 1
v 4 6 -0
v 4 7 1
v 4 7 -0
v 0 3 5
v 0 4 5
v 0 5 5
v 1 3 5
v 1 4 5
v 1 5 5
v 0 2 4
v 0 3 4
v 1 2 4
v 1 3 4
v 0 1 3
v 0 2 3
v 1 1 3
v 1 2 3
v -4 0 2
v -4 1 2
v -3 0 2
v -3 1 2
v -1 0 2
v -1 1 2
v 0 0 2
v 0 1 2
v 1 0 2
v 1 1 2
v -4 5 1
v -4 6 1
v -4 7 1
v -3 3 1
v -3 4 1
v -3 5 1
v -3 6 1
v -3 7 1
v -2 1 1
v -2 3 1
v -2 4 1
v -2 5 1
v -2 6 1
v -1 1 1
v -1 2 1
v -1 4 1
v 0 1 1
v 0 2 1
v 1 1 1
v 1 2 1
v 1 4 1
v 2 1 1
v 2 3 1
v 2 4 1
v 2 5 1
v 2 6 1
v 3 3 1
v 3 4 1
v 3 5 1
v 3 6 1
v 3 7 1
v 4 5 1
v 4 6 1
v 4 7 1
v -1 2 -0
v -1 3 -0
v 0 2 -0
v 0 3 -0
v -1 3 -1
v -1 4 -1
v 0 3 -1
v 0 4 -1
v 2 0 -1
v 2 1 -1
v 3 0 -1
v 3 1 -1
v -1 4 -2
v -1 5 -2
v -1 6 -2
v 0 4 -2
v 0 5 -2
v 0 6 -2
v 0 4 4
v 0 5 4
v 1 4 4
v 1 5 4
v 0 3 3
v 0 4 3
v 1 3 3
v 1 4 3
v 0 2 2
v 0 3 2
v 1 2 2
v 1 3 2
v -4 0 1
v -4 1 1
v -3 0 1
v -3 1 1
v -4 5 -0
v -4 6 -0
v -4 7 -0
v -3 3 -0
v -3 4 -0
v -3 5 -0
v -3 6 -0
v -3 7 -0
v -2 1 -0
v -2 3 -0
v -2 4 -0
v -2 5 -0
v -2 6 -0
v -1 0 -0
v -1 1 -0
v -1 3 -0
v -1 4 -0
v 0 1 -0
v 0 2 -0
v 1 0 -0
v 1 1 -0
v 1 2 -0
v 1 4 -0
v 2 1 -0
v 2 3 -0
v 2 4 -0
v 2 5 -0
v 2 6 -0
v 3 3 -0
v 3 4 -0
v 3 5 -0
v 3 6 -0
v 3 7 -0
v 4 5 -0
v 4 6 -0
v 4 7 -0
v -1 1 -1
v -1 2 -1
v 0 1 -1
v 0 2 -1
v -1 2 -2
v -1 3 -2
v 0 2 -2
v 0 3 -2
v 2 0 -2
v 2 1 -2
v 3 0 -2
v 3 1 -2
v -1 3 -3
v -1 4 -3
v -1 5 -3
v -1 6 -3
v 0 3 -3
v 0 4 -3
v 0 5 -3
v 0 6 -3
v -4 0 2
v -3 0 2
v -1 0 2
v 0 0 2
v 1 0 2
v -4 0 1
v -3 0 1
v -1 0 1
v 0 0 1
v -1 0 -0
v 1 0 -0
v 2 0 -1
v 3 0 -1
v 2 0 -2
v 3 0 -2
v 0 1 3
v 1 1 3
v 0 1 2
v 1 1 2
v -2 1 1
v -1 1 1
v 1 1 1
v 2 1 1
v -2 1 -0
v -1 1 -0
v 0 1 -0
v 1 1 -0
v 2 1 -0
v -1 1 -1
v 0 1 -1
v 0 2 4
v 1 2 4
v 0 2 3
v 1 2 3
v -1 2 -1
v 0 2 -1
v -1 2 -2
v 0 2 -2
v 0 3 5
v 1 3 5
v 0 3 4
v 1 3 4
v -3 3 1
v -2 3 1
v 2 3 1
v 3 3 1
v -3 3 -0
v -2 3 -0
v 2 3 -0
v 3 3 -0
v -1 3 -2
v 0 3 -2
v -1 3 -3
v 0 3 -3
v -4 5 1
v -3 5 1
v 3 5 1
v 4 5 1
v -4 5 -0
v -3 5 -0
v 3 5 -0
v 4 5 -0
v -4 1 2
v -3 1 2
v -1 1 2
v 0 1 2
v -4 1 1
v -3 1 1
v -1 1 1
v 0 1 1
v 2 1 -1
v 3 1 -1
v 2 1 -2
v 3 1 -2
v 0 2 2
v 1 2 2
v -1 2 1
v 0 2 1
v 1 2 1
v -1 2 -0
v 0 2 -0
v 1 2 -0
v 0 3 3
v 1 3 3
v 0 3 2
v 1 3 2
v -1 3 -0
v 0 3 -0
v -1 3 -1
v 0 3 -1
v 0 4 4
v 1 4 4
v 0 4 3
v 1 4 3
v -2 4 1
v -1 4 1
v 1 4 1
v 2 4 1
v -2 4 -0
v -1 4 -0
v 1 4 -0
v 2 4 -0
v -1 4 -1
v 0 4 -1
v -1 4 -2
v 0 4 -2
v 0 5 5
v 1 5 5
v 0 5 4
v 1 5 4
v -3 6 1
v -2 6 1
v 2 6 1
v 3 6 1
v -3 6 -0
v -2 6 -0
v 2 6 -0
v 3 6 -0
v -1 6 -2
v 0 6 -2
v -1 6 -3
v 0 6 -3
v -4 7 1
v -3 7 1
v 3 7 1
v 4 7 1
v -4 7 -0
v -3 7 -0
v 3 7 -0
v 4 7 -0

# faces
f 3/7/1 2/7/1 1/7/1
f 4/7/1 2/7/1 3/7/1
f 7/4/1 6/4/1 5/4/1
f 8/4/1 6/4/1 7/4/1
f 9/5/1 8/5/1 7/5/1
f 10/5/1 8/5/1 9/5/1
f 13/1/1 12/1/1 11/1/1
f 14/1/1 12/1/1 13/1/1
f 15/3/1 14/3/1 13/3/1
f 16/3/1 14/3/1 15/3/1
f 19/1/1 18/1/1 17/1/1
f 20/1/1 18/1/1 19/1/1
f 24/2/1 22/2/1 21/2/1
f 25/1/1 23/1/1 22/1/1
f 25/2/1 22/2/1 24/2/1
f 26/1/1 23/1/1 25/1/1
f 28/1/1 27/1/1 26/1/1
f 30/1/1 28/1/1 26/1/1
f 30/1/1 29/1/1 28/1/1
f 31/1/1 29/1/1 30/1/1
f 32/1/1 29/1/1 31/1/1
f 34/3/1 33/3/1 32/3/1
f 34/3/1 32/3/1 31/3/1
f 35/3/1 33/3/1 34/3/1
f 36/3/1 33/3/1 35/3/1
f 37/4/1 36/4/1 35/4/1
f 38/4/1 36/4/1 37/4/1
f 39/5/1 38/5/1 37/5/1
f 40/5/1 38/5/1 39/5/1
f 45/1/1 42/1/1 41/1/1
f 46/2/1 43/2/1 42/2/1
f 46/1/1 42/1/1 45/1/1
f 47/2/1 43/2/1 46/2/1
f 49/3/1 45/3/1 44/3/1
f 50/1/1 46/1/1 45/1/1
f 50/3/1 45/3/1 49/3/1
f 51/1/1 46/1/1 50/1/1
f 52/3/1 49/3/1 48/3/1
f 52/3/1 50/3/1 49/3/1
f 53/3/1 50/3/1 52/3/1
f 54/3/1 50/3/1 53/3/1
f 55/5/1 53/5/1 52/5/1
f 56/5/1 53/5/1 55/5/1
f 59/1/1 58/1/1 57/1/1
f 60/1/1 58/1/1 59/1/1
f 63/6/1 62/6/1 61/6/1
f 64/6/1 62/6/1 63/6/1
f 67/3/1 66/3/1 65/3/1
f 68/3/1 66/3/1 67/3/1
f 69/4/1 68/4/1 67/4/1
f 70/4/1 68/4/1 69/4/1
f 73/5/1 72/5/1 71/5/1
f 74/5/1 72/5/1 73/5/1
f 75/7/2 76/7/2 77/7/2
f 77/7/2 76/7/2 78/7/2
f 79/5/2 80/5/2 81/5/2
f 81/5/2 80/5/2 82/5/2
f 83/3/2 84/3/2 85/3/2
f 85/3/2 84/3/2 86/3/2
f 85/4/2 86/4/2 87/4/2
f 87/4/2 86/4/2 88/4/2
f 89/1/2 90/1/2 91/1/2
f 89/1/2 91/1/2 92/1/2
f 92/1/2 91/1/2 93/1/2
f 94/1/2 95/1/2 96/1/2
f 96/1/2 95/1/2 97/1/2
f 96/1/2 97/1/2 99/1/2
f 97/1/2 98/1/2 99/1/2
f 99/1/2 98/1/2 100/1/2
f 100/1/2 98/1/2 101/1/2
f 101/3/2 102/3/2 103/3/2
f 100/3/2 101/3/2 103/3/2
f 103/3/2 102/3/2 104/3/2
f 104/3/2 102/3/2 105/3/2
f 104/4/2 105/4/2 106/4/2
f 106/4/2 105/4/2 107/4/2
f 106/5/2 107/5/2 108/5/2
f 108/5/2 107/5/2 109/5/2
f 110/1/2 111/1/2 113/1/2
f 113/1/2 111/1/2 114/1/2
f 114/1/2 111/1/2 115/1/2
f 112/1/2 113/1/2 117/1/2
f 113/2/2 114/2/2 118/2/2
f 117/1/2 113/1/2 118/1/2
f 118/2/2 114/2/2 119/2/2
f 116/3/2 117/3/2 121/3/2
f 117/1/2 118/1/2 122/1/2
f 121/3/2 117/3/2 122/3/2
f 122/1/2 118/1/2 123/1/2
f 120/3/2 121/3/2 124/3/2
f 121/3/2 122/3/2 124/3/2
f 124/3/2 122/3/2 125/3/2
f 125/3/2 122/3/2 126/3/2
f 124/5/2 125/5/2 127/5/2
f 127/5/2 125/5/2 128/5/2
f 129/1/2 130/1/2 131/1/2
f 131/1/2 130/1/2 132/1/2
f 133/6/2 134/6/2 135/6/2
f 135/6/2 134/6/2 136/6/2
f 137/1/2 138/1/2 139/1/2
f 139/1/2 138/1/2 140/1/2
f 139/3/2 140/3/2 141/3/2
f 141/3/2 140/3/2 142/3/2
f 143/4/2 144/4/2 145/4/2
f 145/4/2 144/4/2 146/4/2
f 145/5/2 146/5/2 147/5/2
f 147/5/2 146/5/2 148/5/2
f 152/3/3 150/3/3 149/3/3
f 153/5/3 151/5/3 150/5/3
f 153/3/3 150/3/3 152/3/3
f 154/5/3 151/5/3 153/5/3
f 157/3/3 156/3/3 155/3/3
f 158/3/3 156/3/3 157/3/3
f 161/1/3 160/1/3 159/1/3
f 162/1/3 160/1/3 161/1/3
f 165/7/3 164/7/3 163/7/3
f 166/7/3 164/7/3 165/7/3
f 169/2/3 168/2/3 167/2/3
f 170/2/3 168/2/3 169/2/3
f 171/1/3 170/1/3 169/1/3
f 172/1/3 170/1/3 171/1/3
f 178/4/3 174/4/3 173/4/3
f 179/5/3 175/5/3 174/5/3
f 179/4/3 174/4/3 178/4/3
f 180/5/3 175/5/3 179/5/3
f 182/1/3 177/1/3 176/1/3
f 183/3/3 178/3/3 177/3/3
f 183/1/3 177/1/3 182/1/3
f 184/4/3 179/4/3 178/4/3
f 184/3/3 178/3/3 183/3/3
f 185/4/3 179/4/3 184/4/3
f 186/1/3 182/1/3 181/1/3
f 186/1/3 183/1/3 182/1/3
f 187/1/3 183/1/3 186/1/3
f 188/1/3 183/1/3 187/1/3
f 189/2/3 187/2/3 186/2/3
f 190/2/3 187/2/3 189/2/3
f 194/1/3 192/1/3 191/1/3
f 194/1/3 193/1/3 192/1/3
f 195/1/3 193/1/3 194/1/3
f 196/1/3 193/1/3 195/1/3
f 199/1/3 196/1/3 195/1/3
f 200/3/3 197/3/3 196/3/3
f 200/1/3 196/1/3 199/1/3
f 201/4/3 198/4/3 197/4/3
f 201/3/3 197/3/3 200/3/3
f 202/4/3 198/4/3 201/4/3
f 204/4/3 202/4/3 201/4/3
f 205/5/3 203/5/3 202/5/3
f 205/4/3 202/4/3 204/4/3
f 206/5/3 203/5/3 205/5/3
f 209/1/3 208/1/3 207/1/3
f 210/1/3 208/1/3 209/1/3
f 213/3/3 212/3/3 211/3/3
f 214/3/3 212/3/3 213/3/3
f 217/6/3 216/6/3 215/6/3
f 218/6/3 216/6/3 217/6/3
f 222/4/3 220/4/3 219/4/3
f 223/5/3 221/5/3 220/5/3
f 223/4/3 220/4/3 222/4/3
f 224/5/3 221/5/3 223/5/3
f 225/5/4 226/5/4 227/5/4
f 227/5/4 226/5/4 228/5/4
f 229/3/4 230/3/4 231/3/4
f 231/3/4 230/3/4 232/3/4
f 233/1/4 234/1/4 235/1/4
f 235/1/4 234/1/4 236/1/4
f 237/7/4 238/7/4 239/7/4
f 239/7/4 238/7/4 240/7/4
f 241/4/4 242/4/4 246/4/4
f 242/5/4 243/5/4 247/5/4
f 246/4/4 242/4/4 247/4/4
f 247/5/4 243/5/4 248/5/4
f 244/1/4 245/1/4 250/1/4
f 245/3/4 246/3/4 251/3/4
f 250/1/4 245/1/4 251/1/4
f 246/4/4 247/4/4 252/4/4
f 251/3/4 246/3/4 252/3/4
f 252/4/4 247/4/4 253/4/4
f 249/1/4 250/1/4 255/1/4
f 250/1/4 251/1/4 255/1/4
f 255/1/4 251/1/4 256/1/4
f 256/1/4 251/1/4 257/1/4
f 254/1/4 255/1/4 258/1/4
f 254/1/4 258/1/4 260/1/4
f 258/2/4 259/2/4 261/2/4
f 260/1/4 258/1/4 261/1/4
f 261/2/4 259/2/4 262/2/4
f 262/1/4 263/1/4 264/1/4
f 261/1/4 262/1/4 264/1/4
f 264/1/4 263/1/4 265/1/4
f 265/1/4 263/1/4 266/1/4
f 265/1/4 266/1/4 269/1/4
f 266/3/4 267/3/4 270/3/4
f 269/1/4 266/1/4 270/1/4
f 267/4/4 268/4/4 271/4/4
f 270/3/4 267/3/4 271/3/4
f 271/4/4 268/4/4 272/4/4
f 271/4/4 272/4/4 274/4/4
f 272/5/4 273/5/4 275/5/4
f 274/4/4 272/4/4 275/4/4
f 275/5/4 273/5/4 276/5/4
f 277/1/4 278/1/4 279/1/4
f 279/1/4 278/1/4 280/1/4
f 281/1/4 282/1/4 283/1/4
f 283/1/4 282/1/4 284/1/4
f 285/6/4 286/6/4 287/6/4
f 287/6/4 286/6/4 288/6/4
f 289/3/4 290/3/4 293/3/4
f 290/4/4 291/4/4 294/4/4
f 293/3/4 290/3/4 294/3/4
f 291/5/4 292/5/4 295/5/4
f 294/4/4 291/4/4 295/4/4
f 295/5/4 292/5/4 296/5/4
f 302/7/5 298/7/5 297/7/5
f 303/7/5 298/7/5 302/7/5
f 304/2/5 300/2/5 299/2/5
f 305/1/5 301/1/5 300/1/5
f 305/2/5 300/2/5 304/2/5
f 306/1/5 305/1/5 304/1/5
f 307/1/5 301/1/5 305/1/5
f 307/1/5 305/1/5 306/1/5
f 310/6/5 309/6/5 308/6/5
f 311/6/5 309/6/5 310/6/5
f 314/1/5 313/1/5 312/1/5
f 315/1/5 313/1/5 314/1/5
f 320/1/5 317/1/5 316/1/5
f 321/1/5 317/1/5 320/1/5
f 323/1/5 319/1/5 318/1/5
f 324/1/5 319/1/5 323/1/5
f 325/1/5 322/1/5 321/1/5
f 326/1/5 322/1/5 325/1/5
f 329/3/5 328/3/5 327/3/5
f 330/3/5 328/3/5 329/3/5
f 333/1/5 332/1/5 331/1/5
f 334/1/5 332/1/5 333/1/5
f 337/3/5 336/3/5 335/3/5
f 338/3/5 336/3/5 337/3/5
f 343/1/5 340/1/5 339/1/5
f 344/1/5 340/1/5 343/1/5
f 345/1/5 342/1/5 341/1/5
f 346/1/5 342/1/5 345/1/5
f 349/3/5 348/3/5 347/3/5
f 350/3/5 348/3/5 349/3/5
f 355/4/5 352/4/5 351/4/5
f 356/4/5 352/4/5 355/4/5
f 357/4/5 354/4/5 353/4/5
f 358/4/5 354/4/5 357/4/5
f 359/7/6 360/7/6 363/7/6
f 363/7/6 360/7/6 364/7/6
f 361/2/6 362/2/6 365/2/6
f 365/2/6 362/2/6 366/2/6
f 367/6/6 368/6/6 369/6/6
f 369/6/6 368/6/6 370/6/6
f 371/2/6 372/2/6 374/2/6
f 374/2/6 372/2/6 375/2/6
f 373/2/6 374/2/6 376/2/6
f 374/2/6 375/2/6 376/2/6
f 376/2/6 375/2/6 377/2/6
f 377/2/6 375/2/6 378/2/6
f 379/1/6 380/1/6 381/1/6
f 381/1/6 380/1/6 382/1/6
f 383/1/6 384/1/6 385/1/6
f 385/1/6 384/1/6 386/1/6
f 387/3/6 388/3/6 389/3/6
f 389/3/6 388/3/6 390/3/6
f 391/1/6 392/1/6 395/1/6
f 395/1/6 392/1/6 396/1/6
f 393/1/6 394/1/6 397/1/6
f 397/1/6 394/1/6 398/1/6
f 399/3/6 400/3/6 401/3/6
f 401/3/6 400/3/6 402/3/6
f 403/5/6 404/5/6 405/5/6
f 405/5/6 404/5/6 406/5/6
f 407/4/6 408/4/6 411/4/6
f 411/4/6 408/4/6 412/4/6
f 409/4/6 410/4/6 413/4/6
f 413/4/6 410/4/6 414/4/6
f 415/5/6 416/5/6 417/5/6
f 417/5/6 416/5/6 418/5/6
f 419/5/6 420/5/6 423/5/6
f 423/5/6 420/5/6 424/5/6
f 421/5/6 422/5/6 425/5/6
f 425/5/6 422/5/6 426/5/6
